M48
; DRILL file {KiCad (5.1.10)-1} date 03/19/22 16:07:23
; FORMAT={-:-/ absolute / metric / decimal}
; #@! TF.CreationDate,2022-03-19T16:07:23-07:00
; #@! TF.GenerationSoftware,Kicad,Pcbnew,(5.1.10)-1
; #@! TF.FileFunction,Plated,1,2,PTH
FMAT,2
METRIC
T1C0.400
T2C0.750
T3C0.800
T4C0.900
T5C0.950
T6C1.000
%
G90
G05
T1
X29.718Y-34.29
X30.226Y-45.974
X30.226Y-53.594
X34.544Y-56.896
X34.798Y-35.306
X35.052Y-70.612
X35.814Y-41.91
X36.068Y-71.628
X39.624Y-43.942
X42.418Y-40.386
X43.434Y-47.752
X48.368Y-47.752
X49.276Y-36.83
X49.276Y-75.946
X52.578Y-29.972
X53.848Y-29.064
X56.896Y-45.974
X57.658Y-79.756
X59.69Y-86.868
X60.198Y-45.066
X60.96Y-49.784
X66.548Y-28.156
X69.088Y-94.488
X71.628Y-94.234
X76.454Y-49.53
X76.962Y-88.9
X78.74Y-37.084
X78.994Y-61.722
X81.28Y-86.106
X85.09Y-27.248
X88.646Y-71.628
X105.156Y-81.534
X107.95Y-86.614
X113.538Y-73.406
X114.808Y-85.598
X117.856Y-26.34
X122.682Y-65.024
X124.206Y-67.056
X124.968Y-75.692
X127.254Y-70.104
X128.016Y-38.862
X128.924Y-49.53
X130.302Y-31.75
X130.302Y-60.96
X143.51Y-37.338
X144.78Y-45.974
X144.78Y-53.34
X149.352Y-32.658
X151.13Y-39.116
X152.654Y-34.544
X154.178Y-50.292
X154.178Y-71.374
X155.194Y-69.088
X156.718Y-68.58
X156.718Y-70.104
X157.842Y-55.88
X158.75Y-48.26
X160.528Y-30.48
X161.798Y-30.48
X164.338Y-68.58
X166.871Y-30.487
X166.886Y-44.95
X168.148Y-30.48
X169.202Y-83.566
X169.329Y-30.48
X170.18Y-53.594
X170.18Y-79.756
X170.688Y-31.75
X171.196Y-51.562
X171.196Y-78.486
X172.104Y-58.166
T2
X34.913Y-80.756
X34.913Y-82.026
X34.913Y-83.296
X45.974Y-39.37
X45.974Y-40.64
X45.974Y-41.91
X107.95Y-76.454
X107.95Y-77.724
X107.95Y-78.994
X124.968Y-85.598
X124.968Y-91.694
X126.238Y-85.598
X126.238Y-91.694
X127.508Y-85.598
X127.508Y-91.694
X147.574Y-40.894
X147.574Y-42.164
X147.574Y-43.434
T3
X32.512Y-58.42
X32.512Y-66.04
X32.512Y-69.088
X32.512Y-76.708
X37.338Y-69.088
X37.338Y-76.708
X41.91Y-69.088
X41.91Y-76.708
X45.466Y-34.544
X46.736Y-69.088
X46.736Y-76.708
X47.466Y-34.544
X54.61Y-47.752
X54.61Y-55.372
X54.725Y-73.898
X54.725Y-81.518
X55.372Y-86.868
X55.372Y-88.868
X58.42Y-60.198
X58.42Y-67.818
X59.551Y-47.736
X59.551Y-55.356
X59.69Y-73.914
X59.69Y-81.534
X60.96Y-60.198
X60.96Y-67.818
X62.738Y-86.868
X62.738Y-88.868
X63.5Y-60.198
X63.5Y-67.818
X64.377Y-47.736
X64.377Y-55.356
X64.516Y-73.898
X64.516Y-81.518
X66.04Y-60.198
X66.04Y-67.818
X68.58Y-60.198
X68.58Y-67.818
X69.088Y-73.898
X69.088Y-81.518
X69.088Y-85.662
X69.088Y-90.662
X69.203Y-47.736
X69.203Y-55.356
X71.12Y-60.198
X71.12Y-67.818
X73.66Y-60.198
X73.66Y-67.818
X73.953Y-47.736
X73.953Y-55.356
X74.029Y-73.898
X74.029Y-81.518
X74.029Y-85.582
X74.029Y-90.582
X78.779Y-47.736
X78.779Y-55.356
X78.994Y-73.914
X78.994Y-81.534
X78.994Y-85.662
X78.994Y-90.662
X83.312Y-60.056
X83.312Y-67.676
X83.351Y-47.736
X83.351Y-55.356
X84.074Y-75.296
X84.074Y-77.296
X84.328Y-81.82
X84.328Y-83.82
X84.328Y-88.17
X84.328Y-90.17
X88.269Y-61.406
X88.269Y-66.406
X88.392Y-47.752
X88.392Y-55.372
X91.948Y-78.74
X91.948Y-86.36
X94.488Y-78.74
X94.488Y-86.36
X97.028Y-78.74
X97.028Y-86.36
X99.568Y-78.74
X99.568Y-86.36
X110.744Y-34.544
X110.744Y-36.544
X110.85Y-41.565
X110.85Y-43.565
X110.85Y-47.915
X110.85Y-49.915
X110.85Y-54.17
X110.85Y-56.17
X110.85Y-60.52
X110.85Y-62.52
X112.907Y-75.184
X112.907Y-80.184
X116.565Y-43.688
X116.565Y-48.55
X116.565Y-53.34
X116.586Y-58.166
X117.348Y-91.186
X118.11Y-73.914
X118.11Y-81.534
X119.348Y-91.186
X122.682Y-73.914
X122.682Y-81.534
X124.185Y-43.688
X124.185Y-48.55
X124.185Y-53.34
X124.206Y-58.166
X127.254Y-73.823
X127.254Y-81.443
X130.302Y-39.37
X130.302Y-44.37
X130.302Y-48.169
X130.302Y-55.789
X132.059Y-73.823
X132.059Y-81.443
X134.874Y-60.96
X134.874Y-68.58
X135.128Y-39.45
X135.128Y-44.45
X135.128Y-48.26
X135.128Y-55.88
X137.16Y-73.783
X137.16Y-81.403
X137.414Y-60.96
X137.414Y-68.58
X139.954Y-48.26
X139.954Y-55.88
X139.954Y-60.96
X139.954Y-68.58
X140.97Y-41.148
X140.97Y-43.148
X141.819Y-73.783
X141.819Y-81.403
X141.986Y-85.09
X141.986Y-92.71
X142.494Y-60.96
X142.494Y-68.58
X144.78Y-48.169
X144.78Y-55.789
X145.034Y-60.96
X145.034Y-68.58
X146.812Y-73.783
X146.812Y-81.403
X146.812Y-85.09
X146.812Y-92.71
X147.574Y-60.96
X147.574Y-68.58
X149.483Y-48.169
X149.483Y-55.789
X150.114Y-60.96
X150.114Y-68.58
X151.638Y-85.09
X151.638Y-92.71
X151.892Y-73.783
X151.892Y-81.403
X154.178Y-37.338
X154.178Y-44.958
X154.178Y-48.26
X154.178Y-55.88
X156.718Y-73.914
X156.718Y-81.534
X156.718Y-85.344
X156.718Y-92.964
X161.544Y-73.914
X161.544Y-81.534
X161.798Y-85.344
X161.798Y-92.964
X166.37Y-73.914
X166.37Y-81.534
X166.624Y-85.344
X166.624Y-92.964
T4
X32.512Y-36.83
X32.512Y-44.45
X32.512Y-47.752
X32.512Y-55.372
X117.856Y-36.322
X117.856Y-38.862
X137.16Y-85.09
X137.16Y-92.71
T5
X39.624Y-35.306
X39.624Y-37.806
X39.624Y-40.306
X39.624Y-58.928
X39.624Y-61.428
X39.624Y-63.928
X39.663Y-47.228
X39.663Y-49.728
X39.663Y-52.228
X41.902Y-82.042
X41.99Y-88.646
X44.402Y-82.042
X44.49Y-88.646
X45.974Y-47.244
X45.974Y-49.744
X45.974Y-52.244
X45.974Y-58.928
X45.974Y-61.428
X45.974Y-63.928
X46.902Y-82.042
X46.99Y-88.646
X55.372Y-36.402
X55.372Y-38.902
X55.372Y-41.402
X61.888Y-36.386
X61.888Y-38.886
X61.888Y-41.386
X68.441Y-36.386
X68.441Y-38.886
X68.441Y-41.386
X93.298Y-91.44
X95.798Y-91.44
X96.774Y-36.576
X98.298Y-91.44
X99.274Y-36.576
X101.774Y-36.576
X105.236Y-91.44
X107.736Y-91.44
X110.236Y-91.44
X160.528Y-38.354
X160.528Y-44.958
X160.528Y-51.562
X160.528Y-58.166
X160.528Y-64.77
X163.028Y-38.354
X163.028Y-44.958
X163.028Y-51.562
X163.028Y-58.166
X163.028Y-64.77
X165.528Y-38.354
X165.528Y-44.958
X165.528Y-51.562
X165.528Y-58.166
X165.528Y-64.77
T6
X74.93Y-38.902
X74.93Y-41.402
X85.09Y-37.846
X85.09Y-42.846
X99.42Y-44.196
X99.42Y-49.196
X99.42Y-55.615
X99.42Y-60.615
X99.445Y-66.74
X99.445Y-71.74
X109.982Y-67.858
X109.982Y-70.358
T0
M30
