G04 #@! TF.GenerationSoftware,KiCad,Pcbnew,(5.1.10)-1*
G04 #@! TF.CreationDate,2022-03-19T16:06:14-07:00*
G04 #@! TF.ProjectId,Noise Toaster,4e6f6973-6520-4546-9f61-737465722e6b,rev?*
G04 #@! TF.SameCoordinates,Original*
G04 #@! TF.FileFunction,Soldermask,Bot*
G04 #@! TF.FilePolarity,Negative*
%FSLAX46Y46*%
G04 Gerber Fmt 4.6, Leading zero omitted, Abs format (unit mm)*
G04 Created by KiCad (PCBNEW (5.1.10)-1) date 2022-03-19 16:06:14*
%MOMM*%
%LPD*%
G01*
G04 APERTURE LIST*
%ADD10C,1.600000*%
%ADD11O,1.600000X1.600000*%
%ADD12O,1.950000X1.700000*%
%ADD13R,1.600000X1.600000*%
%ADD14O,2.000000X1.700000*%
%ADD15C,2.000000*%
%ADD16R,2.000000X2.000000*%
%ADD17R,1.800000X1.800000*%
%ADD18C,1.800000*%
%ADD19O,1.800000X1.800000*%
%ADD20O,1.500000X1.050000*%
%ADD21R,1.500000X1.050000*%
%ADD22R,1.050000X1.500000*%
%ADD23O,1.050000X1.500000*%
%ADD24O,1.700000X1.950000*%
G04 APERTURE END LIST*
D10*
X37338000Y-76708000D03*
D11*
X37338000Y-69088000D03*
G36*
G01*
X38937800Y-46378000D02*
X40387800Y-46378000D01*
G75*
G02*
X40637800Y-46628000I0J-250000D01*
G01*
X40637800Y-47828000D01*
G75*
G02*
X40387800Y-48078000I-250000J0D01*
G01*
X38937800Y-48078000D01*
G75*
G02*
X38687800Y-47828000I0J250000D01*
G01*
X38687800Y-46628000D01*
G75*
G02*
X38937800Y-46378000I250000J0D01*
G01*
G37*
D12*
X39662800Y-49728000D03*
X39662800Y-52228000D03*
D13*
X58420000Y-67818000D03*
D11*
X73660000Y-60198000D03*
X60960000Y-67818000D03*
X71120000Y-60198000D03*
X63500000Y-67818000D03*
X68580000Y-60198000D03*
X66040000Y-67818000D03*
X66040000Y-60198000D03*
X68580000Y-67818000D03*
X63500000Y-60198000D03*
X71120000Y-67818000D03*
X60960000Y-60198000D03*
X73660000Y-67818000D03*
X58420000Y-60198000D03*
X134874000Y-60960000D03*
X150114000Y-68580000D03*
X137414000Y-60960000D03*
X147574000Y-68580000D03*
X139954000Y-60960000D03*
X145034000Y-68580000D03*
X142494000Y-60960000D03*
X142494000Y-68580000D03*
X145034000Y-60960000D03*
X139954000Y-68580000D03*
X147574000Y-60960000D03*
X137414000Y-68580000D03*
X150114000Y-60960000D03*
D13*
X134874000Y-68580000D03*
D14*
X74930000Y-38902000D03*
G36*
G01*
X75680000Y-42252000D02*
X74180000Y-42252000D01*
G75*
G02*
X73930000Y-42002000I0J250000D01*
G01*
X73930000Y-40802000D01*
G75*
G02*
X74180000Y-40552000I250000J0D01*
G01*
X75680000Y-40552000D01*
G75*
G02*
X75930000Y-40802000I0J-250000D01*
G01*
X75930000Y-42002000D01*
G75*
G02*
X75680000Y-42252000I-250000J0D01*
G01*
G37*
D10*
X140970000Y-43148000D03*
D13*
X140970000Y-41148000D03*
D15*
X99419600Y-49196000D03*
D16*
X99419600Y-44196000D03*
X85090000Y-37846000D03*
D15*
X85090000Y-42846000D03*
D13*
X110849600Y-62519800D03*
D10*
X110849600Y-60519800D03*
D13*
X110849600Y-56169800D03*
D10*
X110849600Y-54169800D03*
D13*
X110744000Y-34544000D03*
D10*
X110744000Y-36544000D03*
D16*
X99419600Y-60614800D03*
D15*
X99419600Y-55614800D03*
D10*
X130302000Y-44370000D03*
X130302000Y-39370000D03*
X135128000Y-39450000D03*
X135128000Y-44450000D03*
D13*
X110849600Y-41564800D03*
D10*
X110849600Y-43564800D03*
X110849600Y-49914800D03*
D13*
X110849600Y-47914800D03*
D10*
X62738000Y-88868000D03*
D13*
X62738000Y-86868000D03*
X55372000Y-86868000D03*
D10*
X55372000Y-88868000D03*
X112907000Y-80184000D03*
X112907000Y-75184000D03*
X69088000Y-85662000D03*
X69088000Y-90662000D03*
X74029000Y-85582000D03*
X74029000Y-90582000D03*
X47466000Y-34544000D03*
D13*
X45466000Y-34544000D03*
D10*
X119348000Y-91186000D03*
D13*
X117348000Y-91186000D03*
D10*
X78994000Y-90662000D03*
X78994000Y-85662000D03*
X84328000Y-88170000D03*
D13*
X84328000Y-90170000D03*
D10*
X84074000Y-77296000D03*
D13*
X84074000Y-75296000D03*
X84328000Y-83820000D03*
D10*
X84328000Y-81820000D03*
X88269000Y-61406000D03*
X88269000Y-66406000D03*
D15*
X99445000Y-66740000D03*
D16*
X99445000Y-71740000D03*
D17*
X117856000Y-38862000D03*
D18*
X117856000Y-36322000D03*
D17*
X32512000Y-36830000D03*
D19*
X32512000Y-44450000D03*
X32512000Y-55372000D03*
D17*
X32512000Y-47752000D03*
D19*
X137160000Y-85090000D03*
D17*
X137160000Y-92710000D03*
G36*
G01*
X110732000Y-71208000D02*
X109232000Y-71208000D01*
G75*
G02*
X108982000Y-70958000I0J250000D01*
G01*
X108982000Y-69758000D01*
G75*
G02*
X109232000Y-69508000I250000J0D01*
G01*
X110732000Y-69508000D01*
G75*
G02*
X110982000Y-69758000I0J-250000D01*
G01*
X110982000Y-70958000D01*
G75*
G02*
X110732000Y-71208000I-250000J0D01*
G01*
G37*
D14*
X109982000Y-67858000D03*
D20*
X147574000Y-42164000D03*
X147574000Y-43434000D03*
D21*
X147574000Y-40894000D03*
D22*
X127508000Y-85598000D03*
D23*
X124968000Y-85598000D03*
X126238000Y-85598000D03*
D20*
X34913000Y-82026000D03*
X34913000Y-83296000D03*
D21*
X34913000Y-80756000D03*
D20*
X107950000Y-77724000D03*
X107950000Y-78994000D03*
D21*
X107950000Y-76454000D03*
D22*
X124968000Y-91694000D03*
D23*
X127508000Y-91694000D03*
X126238000Y-91694000D03*
D20*
X45974000Y-40640000D03*
X45974000Y-39370000D03*
D21*
X45974000Y-41910000D03*
D11*
X154178000Y-44958000D03*
D10*
X154178000Y-37338000D03*
X166370000Y-81534000D03*
D11*
X166370000Y-73914000D03*
D10*
X166624000Y-85344000D03*
D11*
X166624000Y-92964000D03*
X149483000Y-55788800D03*
D10*
X149483000Y-48168800D03*
D11*
X144780000Y-55788800D03*
D10*
X144780000Y-48168800D03*
X161798000Y-85344000D03*
D11*
X161798000Y-92964000D03*
X83350800Y-55356000D03*
D10*
X83350800Y-47736000D03*
X78778800Y-55356000D03*
D11*
X78778800Y-47736000D03*
X73952800Y-47736000D03*
D10*
X73952800Y-55356000D03*
D11*
X154178000Y-55880000D03*
D10*
X154178000Y-48260000D03*
X116586000Y-58166000D03*
D11*
X124206000Y-58166000D03*
D10*
X116564600Y-53340000D03*
D11*
X124184600Y-53340000D03*
D10*
X135128000Y-55880000D03*
D11*
X135128000Y-48260000D03*
X88392000Y-55372000D03*
D10*
X88392000Y-47752000D03*
X116564600Y-43688000D03*
D11*
X124184600Y-43688000D03*
X139954000Y-48260000D03*
D10*
X139954000Y-55880000D03*
X130302000Y-48168800D03*
D11*
X130302000Y-55788800D03*
X137160000Y-73783000D03*
D10*
X137160000Y-81403000D03*
D11*
X124184600Y-48549800D03*
D10*
X116564600Y-48549800D03*
X74029000Y-73898000D03*
D11*
X74029000Y-81518000D03*
X141818600Y-81403000D03*
D10*
X141818600Y-73783000D03*
D11*
X146812000Y-81403000D03*
D10*
X146812000Y-73783000D03*
X64516000Y-73898000D03*
D11*
X64516000Y-81518000D03*
X59690000Y-81534000D03*
D10*
X59690000Y-73914000D03*
X146812000Y-85090000D03*
D11*
X146812000Y-92710000D03*
X78994000Y-81534000D03*
D10*
X78994000Y-73914000D03*
X151892000Y-81403000D03*
D11*
X151892000Y-73783000D03*
X151638000Y-85090000D03*
D10*
X151638000Y-92710000D03*
D11*
X141986000Y-85090000D03*
D10*
X141986000Y-92710000D03*
X41910000Y-69088000D03*
D11*
X41910000Y-76708000D03*
X46736000Y-76708000D03*
D10*
X46736000Y-69088000D03*
D11*
X54725000Y-73898000D03*
D10*
X54725000Y-81518000D03*
X127254000Y-73822800D03*
D11*
X127254000Y-81442800D03*
D10*
X161544000Y-81534000D03*
D11*
X161544000Y-73914000D03*
D10*
X32512000Y-66040000D03*
D11*
X32512000Y-58420000D03*
X156718000Y-92964000D03*
D10*
X156718000Y-85344000D03*
X156718000Y-81534000D03*
D11*
X156718000Y-73914000D03*
X32512000Y-69088000D03*
D10*
X32512000Y-76708000D03*
D11*
X132058600Y-81442800D03*
D10*
X132058600Y-73822800D03*
X122682000Y-73914000D03*
D11*
X122682000Y-81534000D03*
D10*
X54610000Y-55372000D03*
D11*
X54610000Y-47752000D03*
D10*
X59551000Y-47736000D03*
D11*
X59551000Y-55356000D03*
D10*
X69203000Y-47736000D03*
D11*
X69203000Y-55356000D03*
X64377000Y-55356000D03*
D10*
X64377000Y-47736000D03*
D11*
X118110000Y-81534000D03*
D10*
X118110000Y-73914000D03*
X69088000Y-73898000D03*
D11*
X69088000Y-81518000D03*
D10*
X83312000Y-67676000D03*
D11*
X83312000Y-60056000D03*
D12*
X61887800Y-36386000D03*
X61887800Y-38886000D03*
G36*
G01*
X62612800Y-42236000D02*
X61162800Y-42236000D01*
G75*
G02*
X60912800Y-41986000I0J250000D01*
G01*
X60912800Y-40786000D01*
G75*
G02*
X61162800Y-40536000I250000J0D01*
G01*
X62612800Y-40536000D01*
G75*
G02*
X62862800Y-40786000I0J-250000D01*
G01*
X62862800Y-41986000D01*
G75*
G02*
X62612800Y-42236000I-250000J0D01*
G01*
G37*
G36*
G01*
X69166000Y-42236000D02*
X67716000Y-42236000D01*
G75*
G02*
X67466000Y-41986000I0J250000D01*
G01*
X67466000Y-40786000D01*
G75*
G02*
X67716000Y-40536000I250000J0D01*
G01*
X69166000Y-40536000D01*
G75*
G02*
X69416000Y-40786000I0J-250000D01*
G01*
X69416000Y-41986000D01*
G75*
G02*
X69166000Y-42236000I-250000J0D01*
G01*
G37*
X68441000Y-38886000D03*
X68441000Y-36386000D03*
G36*
G01*
X56097000Y-42252000D02*
X54647000Y-42252000D01*
G75*
G02*
X54397000Y-42002000I0J250000D01*
G01*
X54397000Y-40802000D01*
G75*
G02*
X54647000Y-40552000I250000J0D01*
G01*
X56097000Y-40552000D01*
G75*
G02*
X56347000Y-40802000I0J-250000D01*
G01*
X56347000Y-42002000D01*
G75*
G02*
X56097000Y-42252000I-250000J0D01*
G01*
G37*
X55372000Y-38902000D03*
X55372000Y-36402000D03*
G36*
G01*
X95924000Y-37301000D02*
X95924000Y-35851000D01*
G75*
G02*
X96174000Y-35601000I250000J0D01*
G01*
X97374000Y-35601000D01*
G75*
G02*
X97624000Y-35851000I0J-250000D01*
G01*
X97624000Y-37301000D01*
G75*
G02*
X97374000Y-37551000I-250000J0D01*
G01*
X96174000Y-37551000D01*
G75*
G02*
X95924000Y-37301000I0J250000D01*
G01*
G37*
D24*
X99274000Y-36576000D03*
X101774000Y-36576000D03*
G36*
G01*
X159678000Y-52287000D02*
X159678000Y-50837000D01*
G75*
G02*
X159928000Y-50587000I250000J0D01*
G01*
X161128000Y-50587000D01*
G75*
G02*
X161378000Y-50837000I0J-250000D01*
G01*
X161378000Y-52287000D01*
G75*
G02*
X161128000Y-52537000I-250000J0D01*
G01*
X159928000Y-52537000D01*
G75*
G02*
X159678000Y-52287000I0J250000D01*
G01*
G37*
X163028000Y-51562000D03*
X165528000Y-51562000D03*
X41901800Y-82042000D03*
X44401800Y-82042000D03*
G36*
G01*
X47751800Y-81317000D02*
X47751800Y-82767000D01*
G75*
G02*
X47501800Y-83017000I-250000J0D01*
G01*
X46301800Y-83017000D01*
G75*
G02*
X46051800Y-82767000I0J250000D01*
G01*
X46051800Y-81317000D01*
G75*
G02*
X46301800Y-81067000I250000J0D01*
G01*
X47501800Y-81067000D01*
G75*
G02*
X47751800Y-81317000I0J-250000D01*
G01*
G37*
G36*
G01*
X45249000Y-46394000D02*
X46699000Y-46394000D01*
G75*
G02*
X46949000Y-46644000I0J-250000D01*
G01*
X46949000Y-47844000D01*
G75*
G02*
X46699000Y-48094000I-250000J0D01*
G01*
X45249000Y-48094000D01*
G75*
G02*
X44999000Y-47844000I0J250000D01*
G01*
X44999000Y-46644000D01*
G75*
G02*
X45249000Y-46394000I250000J0D01*
G01*
G37*
D12*
X45974000Y-49744000D03*
X45974000Y-52244000D03*
X39624000Y-40306000D03*
X39624000Y-37806000D03*
G36*
G01*
X38899000Y-34456000D02*
X40349000Y-34456000D01*
G75*
G02*
X40599000Y-34706000I0J-250000D01*
G01*
X40599000Y-35906000D01*
G75*
G02*
X40349000Y-36156000I-250000J0D01*
G01*
X38899000Y-36156000D01*
G75*
G02*
X38649000Y-35906000I0J250000D01*
G01*
X38649000Y-34706000D01*
G75*
G02*
X38899000Y-34456000I250000J0D01*
G01*
G37*
G36*
G01*
X47840000Y-87921000D02*
X47840000Y-89371000D01*
G75*
G02*
X47590000Y-89621000I-250000J0D01*
G01*
X46390000Y-89621000D01*
G75*
G02*
X46140000Y-89371000I0J250000D01*
G01*
X46140000Y-87921000D01*
G75*
G02*
X46390000Y-87671000I250000J0D01*
G01*
X47590000Y-87671000D01*
G75*
G02*
X47840000Y-87921000I0J-250000D01*
G01*
G37*
D24*
X44490000Y-88646000D03*
X41990000Y-88646000D03*
G36*
G01*
X99148000Y-90715000D02*
X99148000Y-92165000D01*
G75*
G02*
X98898000Y-92415000I-250000J0D01*
G01*
X97698000Y-92415000D01*
G75*
G02*
X97448000Y-92165000I0J250000D01*
G01*
X97448000Y-90715000D01*
G75*
G02*
X97698000Y-90465000I250000J0D01*
G01*
X98898000Y-90465000D01*
G75*
G02*
X99148000Y-90715000I0J-250000D01*
G01*
G37*
X95798000Y-91440000D03*
X93298000Y-91440000D03*
G36*
G01*
X159678000Y-39079000D02*
X159678000Y-37629000D01*
G75*
G02*
X159928000Y-37379000I250000J0D01*
G01*
X161128000Y-37379000D01*
G75*
G02*
X161378000Y-37629000I0J-250000D01*
G01*
X161378000Y-39079000D01*
G75*
G02*
X161128000Y-39329000I-250000J0D01*
G01*
X159928000Y-39329000D01*
G75*
G02*
X159678000Y-39079000I0J250000D01*
G01*
G37*
X163028000Y-38354000D03*
X165528000Y-38354000D03*
X165528000Y-64770000D03*
X163028000Y-64770000D03*
G36*
G01*
X159678000Y-65495000D02*
X159678000Y-64045000D01*
G75*
G02*
X159928000Y-63795000I250000J0D01*
G01*
X161128000Y-63795000D01*
G75*
G02*
X161378000Y-64045000I0J-250000D01*
G01*
X161378000Y-65495000D01*
G75*
G02*
X161128000Y-65745000I-250000J0D01*
G01*
X159928000Y-65745000D01*
G75*
G02*
X159678000Y-65495000I0J250000D01*
G01*
G37*
X165528000Y-58166000D03*
X163028000Y-58166000D03*
G36*
G01*
X159678000Y-58891000D02*
X159678000Y-57441000D01*
G75*
G02*
X159928000Y-57191000I250000J0D01*
G01*
X161128000Y-57191000D01*
G75*
G02*
X161378000Y-57441000I0J-250000D01*
G01*
X161378000Y-58891000D01*
G75*
G02*
X161128000Y-59141000I-250000J0D01*
G01*
X159928000Y-59141000D01*
G75*
G02*
X159678000Y-58891000I0J250000D01*
G01*
G37*
G36*
G01*
X111086000Y-90715000D02*
X111086000Y-92165000D01*
G75*
G02*
X110836000Y-92415000I-250000J0D01*
G01*
X109636000Y-92415000D01*
G75*
G02*
X109386000Y-92165000I0J250000D01*
G01*
X109386000Y-90715000D01*
G75*
G02*
X109636000Y-90465000I250000J0D01*
G01*
X110836000Y-90465000D01*
G75*
G02*
X111086000Y-90715000I0J-250000D01*
G01*
G37*
X107736000Y-91440000D03*
X105236000Y-91440000D03*
G36*
G01*
X159678000Y-45683000D02*
X159678000Y-44233000D01*
G75*
G02*
X159928000Y-43983000I250000J0D01*
G01*
X161128000Y-43983000D01*
G75*
G02*
X161378000Y-44233000I0J-250000D01*
G01*
X161378000Y-45683000D01*
G75*
G02*
X161128000Y-45933000I-250000J0D01*
G01*
X159928000Y-45933000D01*
G75*
G02*
X159678000Y-45683000I0J250000D01*
G01*
G37*
X163028000Y-44958000D03*
X165528000Y-44958000D03*
D12*
X45974000Y-63928000D03*
X45974000Y-61428000D03*
G36*
G01*
X45249000Y-58078000D02*
X46699000Y-58078000D01*
G75*
G02*
X46949000Y-58328000I0J-250000D01*
G01*
X46949000Y-59528000D01*
G75*
G02*
X46699000Y-59778000I-250000J0D01*
G01*
X45249000Y-59778000D01*
G75*
G02*
X44999000Y-59528000I0J250000D01*
G01*
X44999000Y-58328000D01*
G75*
G02*
X45249000Y-58078000I250000J0D01*
G01*
G37*
X39624000Y-63928000D03*
X39624000Y-61428000D03*
G36*
G01*
X38899000Y-58078000D02*
X40349000Y-58078000D01*
G75*
G02*
X40599000Y-58328000I0J-250000D01*
G01*
X40599000Y-59528000D01*
G75*
G02*
X40349000Y-59778000I-250000J0D01*
G01*
X38899000Y-59778000D01*
G75*
G02*
X38649000Y-59528000I0J250000D01*
G01*
X38649000Y-58328000D01*
G75*
G02*
X38899000Y-58078000I250000J0D01*
G01*
G37*
D13*
X91948000Y-86360000D03*
D11*
X99568000Y-78740000D03*
X94488000Y-86360000D03*
X97028000Y-78740000D03*
X97028000Y-86360000D03*
X94488000Y-78740000D03*
X99568000Y-86360000D03*
X91948000Y-78740000D03*
M02*
