%FSLAX45Y45*%
G04 Gerber Fmt 4.5, Leading zero omitted, Abs format (unit mm)*
G04 Created by KiCad (PCBNEW (5.1.10)-1) date 2022-03-19 16:07:48*
%MOMM*%
%LPD*%
G01*
G04 APERTURE LIST*
%TA.AperFunction,Profile*%
%ADD10C,0.050000*%
%TD*%
%ADD11C,0.200000*%
%ADD12C,0.300000*%
G04 APERTURE END LIST*
D10*
X17449800Y-2489200D02*
X17373600Y-2489200D01*
X17449800Y-9855200D02*
X17449800Y-2489200D01*
X17373600Y-9855200D02*
X17449800Y-9855200D01*
X9118600Y-9855200D02*
X17373600Y-9855200D01*
X17373600Y-2489200D02*
X2540000Y-2514600D01*
X2540000Y-9855200D02*
X9118600Y-9855200D01*
X2540000Y-9652000D02*
X2540000Y-9855200D01*
X2540000Y-2514600D02*
X2540000Y-9652000D01*
D11*
X2951800Y-3409000D02*
X2991800Y-3449000D01*
X2991800Y-3409000D02*
X2951800Y-3449000D01*
X3002600Y-4577400D02*
X3042600Y-4617400D01*
X3042600Y-4577400D02*
X3002600Y-4617400D01*
X3002600Y-5339400D02*
X3042600Y-5379400D01*
X3042600Y-5339400D02*
X3002600Y-5379400D01*
X3434400Y-5669600D02*
X3474400Y-5709600D01*
X3474400Y-5669600D02*
X3434400Y-5709600D01*
X3459800Y-3510600D02*
X3499800Y-3550600D01*
X3499800Y-3510600D02*
X3459800Y-3550600D01*
X3485200Y-7041200D02*
X3525200Y-7081200D01*
X3525200Y-7041200D02*
X3485200Y-7081200D01*
X3561400Y-4171000D02*
X3601400Y-4211000D01*
X3601400Y-4171000D02*
X3561400Y-4211000D01*
X3586800Y-7142800D02*
X3626800Y-7182800D01*
X3626800Y-7142800D02*
X3586800Y-7182800D01*
X3942400Y-4374200D02*
X3982400Y-4414200D01*
X3982400Y-4374200D02*
X3942400Y-4414200D01*
X4221800Y-4018600D02*
X4261800Y-4058600D01*
X4261800Y-4018600D02*
X4221800Y-4058600D01*
X4323400Y-4755200D02*
X4363400Y-4795200D01*
X4363400Y-4755200D02*
X4323400Y-4795200D01*
X4816800Y-4755200D02*
X4856800Y-4795200D01*
X4856800Y-4755200D02*
X4816800Y-4795200D01*
X4907600Y-3663000D02*
X4947600Y-3703000D01*
X4947600Y-3663000D02*
X4907600Y-3703000D01*
X4907600Y-7574600D02*
X4947600Y-7614600D01*
X4947600Y-7574600D02*
X4907600Y-7614600D01*
X5237800Y-2977200D02*
X5277800Y-3017200D01*
X5277800Y-2977200D02*
X5237800Y-3017200D01*
X5364800Y-2886400D02*
X5404800Y-2926400D01*
X5404800Y-2886400D02*
X5364800Y-2926400D01*
X5669600Y-4577400D02*
X5709600Y-4617400D01*
X5709600Y-4577400D02*
X5669600Y-4617400D01*
X5745800Y-7955600D02*
X5785800Y-7995600D01*
X5785800Y-7955600D02*
X5745800Y-7995600D01*
X5949000Y-8666800D02*
X5989000Y-8706800D01*
X5989000Y-8666800D02*
X5949000Y-8706800D01*
X5999800Y-4486600D02*
X6039800Y-4526600D01*
X6039800Y-4486600D02*
X5999800Y-4526600D01*
X6076000Y-4958400D02*
X6116000Y-4998400D01*
X6116000Y-4958400D02*
X6076000Y-4998400D01*
X6634800Y-2795600D02*
X6674800Y-2835600D01*
X6674800Y-2795600D02*
X6634800Y-2835600D01*
X6888800Y-9428800D02*
X6928800Y-9468800D01*
X6928800Y-9428800D02*
X6888800Y-9468800D01*
X7142800Y-9403400D02*
X7182800Y-9443400D01*
X7182800Y-9403400D02*
X7142800Y-9443400D01*
X7625400Y-4933000D02*
X7665400Y-4973000D01*
X7665400Y-4933000D02*
X7625400Y-4973000D01*
X7676200Y-8870000D02*
X7716200Y-8910000D01*
X7716200Y-8870000D02*
X7676200Y-8910000D01*
X7854000Y-3688400D02*
X7894000Y-3728400D01*
X7894000Y-3688400D02*
X7854000Y-3728400D01*
X7879400Y-6152200D02*
X7919400Y-6192200D01*
X7919400Y-6152200D02*
X7879400Y-6192200D01*
X8108000Y-8590600D02*
X8148000Y-8630600D01*
X8148000Y-8590600D02*
X8108000Y-8630600D01*
X8489000Y-2704800D02*
X8529000Y-2744800D01*
X8529000Y-2704800D02*
X8489000Y-2744800D01*
X8844600Y-7142800D02*
X8884600Y-7182800D01*
X8884600Y-7142800D02*
X8844600Y-7182800D01*
X10495600Y-8133400D02*
X10535600Y-8173400D01*
X10535600Y-8133400D02*
X10495600Y-8173400D01*
X10775000Y-8641400D02*
X10815000Y-8681400D01*
X10815000Y-8641400D02*
X10775000Y-8681400D01*
X11333800Y-7320600D02*
X11373800Y-7360600D01*
X11373800Y-7320600D02*
X11333800Y-7360600D01*
X11460800Y-8539800D02*
X11500800Y-8579800D01*
X11500800Y-8539800D02*
X11460800Y-8579800D01*
X11765600Y-2614000D02*
X11805600Y-2654000D01*
X11805600Y-2614000D02*
X11765600Y-2654000D01*
X12248200Y-6482400D02*
X12288200Y-6522400D01*
X12288200Y-6482400D02*
X12248200Y-6522400D01*
X12400600Y-6685600D02*
X12440600Y-6725600D01*
X12440600Y-6685600D02*
X12400600Y-6725600D01*
X12476800Y-7549200D02*
X12516800Y-7589200D01*
X12516800Y-7549200D02*
X12476800Y-7589200D01*
X12705400Y-6990400D02*
X12745400Y-7030400D01*
X12745400Y-6990400D02*
X12705400Y-7030400D01*
X12781600Y-3866200D02*
X12821600Y-3906200D01*
X12821600Y-3866200D02*
X12781600Y-3906200D01*
X12872400Y-4933000D02*
X12912400Y-4973000D01*
X12912400Y-4933000D02*
X12872400Y-4973000D01*
X13010200Y-3155000D02*
X13050200Y-3195000D01*
X13050200Y-3155000D02*
X13010200Y-3195000D01*
X13010200Y-6076000D02*
X13050200Y-6116000D01*
X13050200Y-6076000D02*
X13010200Y-6116000D01*
X14331000Y-3713800D02*
X14371000Y-3753800D01*
X14371000Y-3713800D02*
X14331000Y-3753800D01*
X14458000Y-4577400D02*
X14498000Y-4617400D01*
X14498000Y-4577400D02*
X14458000Y-4617400D01*
X14458000Y-5314000D02*
X14498000Y-5354000D01*
X14498000Y-5314000D02*
X14458000Y-5354000D01*
X14915200Y-3245800D02*
X14955200Y-3285800D01*
X14955200Y-3245800D02*
X14915200Y-3285800D01*
X15093000Y-3891600D02*
X15133000Y-3931600D01*
X15133000Y-3891600D02*
X15093000Y-3931600D01*
X15245400Y-3434400D02*
X15285400Y-3474400D01*
X15285400Y-3434400D02*
X15245400Y-3474400D01*
X15397800Y-5009200D02*
X15437800Y-5049200D01*
X15437800Y-5009200D02*
X15397800Y-5049200D01*
X15397800Y-7117400D02*
X15437800Y-7157400D01*
X15437800Y-7117400D02*
X15397800Y-7157400D01*
X15499400Y-6888800D02*
X15539400Y-6928800D01*
X15539400Y-6888800D02*
X15499400Y-6928800D01*
X15651800Y-6838000D02*
X15691800Y-6878000D01*
X15691800Y-6838000D02*
X15651800Y-6878000D01*
X15651800Y-6990400D02*
X15691800Y-7030400D01*
X15691800Y-6990400D02*
X15651800Y-7030400D01*
X15764200Y-5568000D02*
X15804200Y-5608000D01*
X15804200Y-5568000D02*
X15764200Y-5608000D01*
X15855000Y-4806000D02*
X15895000Y-4846000D01*
X15895000Y-4806000D02*
X15855000Y-4846000D01*
X16032800Y-3028000D02*
X16072800Y-3068000D01*
X16072800Y-3028000D02*
X16032800Y-3068000D01*
X16159800Y-3028000D02*
X16199800Y-3068000D01*
X16199800Y-3028000D02*
X16159800Y-3068000D01*
X16413800Y-6838000D02*
X16453800Y-6878000D01*
X16453800Y-6838000D02*
X16413800Y-6878000D01*
X16667095Y-3028705D02*
X16707095Y-3068705D01*
X16707095Y-3028705D02*
X16667095Y-3068705D01*
X16668601Y-4474999D02*
X16708601Y-4514999D01*
X16708601Y-4474999D02*
X16668601Y-4514999D01*
X16794800Y-3028000D02*
X16834800Y-3068000D01*
X16834800Y-3028000D02*
X16794800Y-3068000D01*
X16900200Y-8336600D02*
X16940200Y-8376600D01*
X16940200Y-8336600D02*
X16900200Y-8376600D01*
X16912900Y-3028000D02*
X16952900Y-3068000D01*
X16952900Y-3028000D02*
X16912900Y-3068000D01*
X16998000Y-5339400D02*
X17038000Y-5379400D01*
X17038000Y-5339400D02*
X16998000Y-5379400D01*
X16998000Y-7955600D02*
X17038000Y-7995600D01*
X17038000Y-7955600D02*
X16998000Y-7995600D01*
X17048800Y-3155000D02*
X17088800Y-3195000D01*
X17088800Y-3155000D02*
X17048800Y-3195000D01*
X17099600Y-5136200D02*
X17139600Y-5176200D01*
X17139600Y-5136200D02*
X17099600Y-5176200D01*
X17099600Y-7828600D02*
X17139600Y-7868600D01*
X17139600Y-7828600D02*
X17099600Y-7868600D01*
X17190400Y-5796600D02*
X17230400Y-5836600D01*
X17230400Y-5796600D02*
X17190400Y-5836600D01*
X3528800Y-8075600D02*
G75*
G03*
X3528800Y-8075600I-37500J0D01*
G01*
X3528800Y-8202600D02*
G75*
G03*
X3528800Y-8202600I-37500J0D01*
G01*
X3528800Y-8329600D02*
G75*
G03*
X3528800Y-8329600I-37500J0D01*
G01*
X4634900Y-3937000D02*
G75*
G03*
X4634900Y-3937000I-37500J0D01*
G01*
X4634900Y-4064000D02*
G75*
G03*
X4634900Y-4064000I-37500J0D01*
G01*
X4634900Y-4191000D02*
G75*
G03*
X4634900Y-4191000I-37500J0D01*
G01*
X10832500Y-7645400D02*
G75*
G03*
X10832500Y-7645400I-37500J0D01*
G01*
X10832500Y-7772400D02*
G75*
G03*
X10832500Y-7772400I-37500J0D01*
G01*
X10832500Y-7899400D02*
G75*
G03*
X10832500Y-7899400I-37500J0D01*
G01*
X12534300Y-8559800D02*
G75*
G03*
X12534300Y-8559800I-37500J0D01*
G01*
X12534300Y-9169400D02*
G75*
G03*
X12534300Y-9169400I-37500J0D01*
G01*
X12661300Y-8559800D02*
G75*
G03*
X12661300Y-8559800I-37500J0D01*
G01*
X12661300Y-9169400D02*
G75*
G03*
X12661300Y-9169400I-37500J0D01*
G01*
X12788300Y-8559800D02*
G75*
G03*
X12788300Y-8559800I-37500J0D01*
G01*
X12788300Y-9169400D02*
G75*
G03*
X12788300Y-9169400I-37500J0D01*
G01*
X14794900Y-4089400D02*
G75*
G03*
X14794900Y-4089400I-37500J0D01*
G01*
X14794900Y-4216400D02*
G75*
G03*
X14794900Y-4216400I-37500J0D01*
G01*
X14794900Y-4343400D02*
G75*
G03*
X14794900Y-4343400I-37500J0D01*
G01*
X3251200Y-5802000D02*
X3251200Y-5882000D01*
X3211200Y-5842000D02*
X3291200Y-5842000D01*
X3251200Y-6564000D02*
X3251200Y-6644000D01*
X3211200Y-6604000D02*
X3291200Y-6604000D01*
X3251200Y-6868800D02*
X3251200Y-6948800D01*
X3211200Y-6908800D02*
X3291200Y-6908800D01*
X3251200Y-7630800D02*
X3251200Y-7710800D01*
X3211200Y-7670800D02*
X3291200Y-7670800D01*
X3733800Y-6868800D02*
X3733800Y-6948800D01*
X3693800Y-6908800D02*
X3773800Y-6908800D01*
X3733800Y-7630800D02*
X3733800Y-7710800D01*
X3693800Y-7670800D02*
X3773800Y-7670800D01*
X4191000Y-6868800D02*
X4191000Y-6948800D01*
X4151000Y-6908800D02*
X4231000Y-6908800D01*
X4191000Y-7630800D02*
X4191000Y-7710800D01*
X4151000Y-7670800D02*
X4231000Y-7670800D01*
X4546600Y-3414400D02*
X4546600Y-3494400D01*
X4506600Y-3454400D02*
X4586600Y-3454400D01*
X4673600Y-6868800D02*
X4673600Y-6948800D01*
X4633600Y-6908800D02*
X4713600Y-6908800D01*
X4673600Y-7630800D02*
X4673600Y-7710800D01*
X4633600Y-7670800D02*
X4713600Y-7670800D01*
X4746600Y-3414400D02*
X4746600Y-3494400D01*
X4706600Y-3454400D02*
X4786600Y-3454400D01*
X5461000Y-4735200D02*
X5461000Y-4815200D01*
X5421000Y-4775200D02*
X5501000Y-4775200D01*
X5461000Y-5497200D02*
X5461000Y-5577200D01*
X5421000Y-5537200D02*
X5501000Y-5537200D01*
X5472500Y-7349800D02*
X5472500Y-7429800D01*
X5432500Y-7389800D02*
X5512500Y-7389800D01*
X5472500Y-8111800D02*
X5472500Y-8191800D01*
X5432500Y-8151800D02*
X5512500Y-8151800D01*
X5537200Y-8646800D02*
X5537200Y-8726800D01*
X5497200Y-8686800D02*
X5577200Y-8686800D01*
X5537200Y-8846800D02*
X5537200Y-8926800D01*
X5497200Y-8886800D02*
X5577200Y-8886800D01*
X5842000Y-5979800D02*
X5842000Y-6059800D01*
X5802000Y-6019800D02*
X5882000Y-6019800D01*
X5842000Y-6741800D02*
X5842000Y-6821800D01*
X5802000Y-6781800D02*
X5882000Y-6781800D01*
X5955100Y-4733600D02*
X5955100Y-4813600D01*
X5915100Y-4773600D02*
X5995100Y-4773600D01*
X5955100Y-5495600D02*
X5955100Y-5575600D01*
X5915100Y-5535600D02*
X5995100Y-5535600D01*
X5969000Y-7351400D02*
X5969000Y-7431400D01*
X5929000Y-7391400D02*
X6009000Y-7391400D01*
X5969000Y-8113400D02*
X5969000Y-8193400D01*
X5929000Y-8153400D02*
X6009000Y-8153400D01*
X6096000Y-5979800D02*
X6096000Y-6059800D01*
X6056000Y-6019800D02*
X6136000Y-6019800D01*
X6096000Y-6741800D02*
X6096000Y-6821800D01*
X6056000Y-6781800D02*
X6136000Y-6781800D01*
X6273800Y-8646800D02*
X6273800Y-8726800D01*
X6233800Y-8686800D02*
X6313800Y-8686800D01*
X6273800Y-8846800D02*
X6273800Y-8926800D01*
X6233800Y-8886800D02*
X6313800Y-8886800D01*
X6350000Y-5979800D02*
X6350000Y-6059800D01*
X6310000Y-6019800D02*
X6390000Y-6019800D01*
X6350000Y-6741800D02*
X6350000Y-6821800D01*
X6310000Y-6781800D02*
X6390000Y-6781800D01*
X6437700Y-4733600D02*
X6437700Y-4813600D01*
X6397700Y-4773600D02*
X6477700Y-4773600D01*
X6437700Y-5495600D02*
X6437700Y-5575600D01*
X6397700Y-5535600D02*
X6477700Y-5535600D01*
X6451600Y-7349800D02*
X6451600Y-7429800D01*
X6411600Y-7389800D02*
X6491600Y-7389800D01*
X6451600Y-8111800D02*
X6451600Y-8191800D01*
X6411600Y-8151800D02*
X6491600Y-8151800D01*
X6604000Y-5979800D02*
X6604000Y-6059800D01*
X6564000Y-6019800D02*
X6644000Y-6019800D01*
X6604000Y-6741800D02*
X6604000Y-6821800D01*
X6564000Y-6781800D02*
X6644000Y-6781800D01*
X6858000Y-5979800D02*
X6858000Y-6059800D01*
X6818000Y-6019800D02*
X6898000Y-6019800D01*
X6858000Y-6741800D02*
X6858000Y-6821800D01*
X6818000Y-6781800D02*
X6898000Y-6781800D01*
X6908800Y-7349800D02*
X6908800Y-7429800D01*
X6868800Y-7389800D02*
X6948800Y-7389800D01*
X6908800Y-8111800D02*
X6908800Y-8191800D01*
X6868800Y-8151800D02*
X6948800Y-8151800D01*
X6908800Y-8526200D02*
X6908800Y-8606200D01*
X6868800Y-8566200D02*
X6948800Y-8566200D01*
X6908800Y-9026200D02*
X6908800Y-9106200D01*
X6868800Y-9066200D02*
X6948800Y-9066200D01*
X6920300Y-4733600D02*
X6920300Y-4813600D01*
X6880300Y-4773600D02*
X6960300Y-4773600D01*
X6920300Y-5495600D02*
X6920300Y-5575600D01*
X6880300Y-5535600D02*
X6960300Y-5535600D01*
X7112000Y-5979800D02*
X7112000Y-6059800D01*
X7072000Y-6019800D02*
X7152000Y-6019800D01*
X7112000Y-6741800D02*
X7112000Y-6821800D01*
X7072000Y-6781800D02*
X7152000Y-6781800D01*
X7366000Y-5979800D02*
X7366000Y-6059800D01*
X7326000Y-6019800D02*
X7406000Y-6019800D01*
X7366000Y-6741800D02*
X7366000Y-6821800D01*
X7326000Y-6781800D02*
X7406000Y-6781800D01*
X7395280Y-4733600D02*
X7395280Y-4813600D01*
X7355280Y-4773600D02*
X7435280Y-4773600D01*
X7395280Y-5495600D02*
X7395280Y-5575600D01*
X7355280Y-5535600D02*
X7435280Y-5535600D01*
X7402900Y-7349800D02*
X7402900Y-7429800D01*
X7362900Y-7389800D02*
X7442900Y-7389800D01*
X7402900Y-8111800D02*
X7402900Y-8191800D01*
X7362900Y-8151800D02*
X7442900Y-8151800D01*
X7402900Y-8518200D02*
X7402900Y-8598200D01*
X7362900Y-8558200D02*
X7442900Y-8558200D01*
X7402900Y-9018200D02*
X7402900Y-9098200D01*
X7362900Y-9058200D02*
X7442900Y-9058200D01*
X7877880Y-4733600D02*
X7877880Y-4813600D01*
X7837880Y-4773600D02*
X7917880Y-4773600D01*
X7877880Y-5495600D02*
X7877880Y-5575600D01*
X7837880Y-5535600D02*
X7917880Y-5535600D01*
X7899400Y-7351400D02*
X7899400Y-7431400D01*
X7859400Y-7391400D02*
X7939400Y-7391400D01*
X7899400Y-8113400D02*
X7899400Y-8193400D01*
X7859400Y-8153400D02*
X7939400Y-8153400D01*
X7899400Y-8526200D02*
X7899400Y-8606200D01*
X7859400Y-8566200D02*
X7939400Y-8566200D01*
X7899400Y-9026200D02*
X7899400Y-9106200D01*
X7859400Y-9066200D02*
X7939400Y-9066200D01*
X8331200Y-5965600D02*
X8331200Y-6045600D01*
X8291200Y-6005600D02*
X8371200Y-6005600D01*
X8331200Y-6727600D02*
X8331200Y-6807600D01*
X8291200Y-6767600D02*
X8371200Y-6767600D01*
X8335080Y-4733600D02*
X8335080Y-4813600D01*
X8295080Y-4773600D02*
X8375080Y-4773600D01*
X8335080Y-5495600D02*
X8335080Y-5575600D01*
X8295080Y-5535600D02*
X8375080Y-5535600D01*
X8407400Y-7489600D02*
X8407400Y-7569600D01*
X8367400Y-7529600D02*
X8447400Y-7529600D01*
X8407400Y-7689600D02*
X8407400Y-7769600D01*
X8367400Y-7729600D02*
X8447400Y-7729600D01*
X8432800Y-8142000D02*
X8432800Y-8222000D01*
X8392800Y-8182000D02*
X8472800Y-8182000D01*
X8432800Y-8342000D02*
X8432800Y-8422000D01*
X8392800Y-8382000D02*
X8472800Y-8382000D01*
X8432800Y-8777000D02*
X8432800Y-8857000D01*
X8392800Y-8817000D02*
X8472800Y-8817000D01*
X8432800Y-8977000D02*
X8432800Y-9057000D01*
X8392800Y-9017000D02*
X8472800Y-9017000D01*
X8826900Y-6100600D02*
X8826900Y-6180600D01*
X8786900Y-6140600D02*
X8866900Y-6140600D01*
X8826900Y-6600600D02*
X8826900Y-6680600D01*
X8786900Y-6640600D02*
X8866900Y-6640600D01*
X8839200Y-4735200D02*
X8839200Y-4815200D01*
X8799200Y-4775200D02*
X8879200Y-4775200D01*
X8839200Y-5497200D02*
X8839200Y-5577200D01*
X8799200Y-5537200D02*
X8879200Y-5537200D01*
X9194800Y-7834000D02*
X9194800Y-7914000D01*
X9154800Y-7874000D02*
X9234800Y-7874000D01*
X9194800Y-8596000D02*
X9194800Y-8676000D01*
X9154800Y-8636000D02*
X9234800Y-8636000D01*
X9448800Y-7834000D02*
X9448800Y-7914000D01*
X9408800Y-7874000D02*
X9488800Y-7874000D01*
X9448800Y-8596000D02*
X9448800Y-8676000D01*
X9408800Y-8636000D02*
X9488800Y-8636000D01*
X9702800Y-7834000D02*
X9702800Y-7914000D01*
X9662800Y-7874000D02*
X9742800Y-7874000D01*
X9702800Y-8596000D02*
X9702800Y-8676000D01*
X9662800Y-8636000D02*
X9742800Y-8636000D01*
X9956800Y-7834000D02*
X9956800Y-7914000D01*
X9916800Y-7874000D02*
X9996800Y-7874000D01*
X9956800Y-8596000D02*
X9956800Y-8676000D01*
X9916800Y-8636000D02*
X9996800Y-8636000D01*
X11074400Y-3414400D02*
X11074400Y-3494400D01*
X11034400Y-3454400D02*
X11114400Y-3454400D01*
X11074400Y-3614400D02*
X11074400Y-3694400D01*
X11034400Y-3654400D02*
X11114400Y-3654400D01*
X11084960Y-4116480D02*
X11084960Y-4196480D01*
X11044960Y-4156480D02*
X11124960Y-4156480D01*
X11084960Y-4316480D02*
X11084960Y-4396480D01*
X11044960Y-4356480D02*
X11124960Y-4356480D01*
X11084960Y-4751480D02*
X11084960Y-4831480D01*
X11044960Y-4791480D02*
X11124960Y-4791480D01*
X11084960Y-4951480D02*
X11084960Y-5031480D01*
X11044960Y-4991480D02*
X11124960Y-4991480D01*
X11084960Y-5376980D02*
X11084960Y-5456980D01*
X11044960Y-5416980D02*
X11124960Y-5416980D01*
X11084960Y-5576980D02*
X11084960Y-5656980D01*
X11044960Y-5616980D02*
X11124960Y-5616980D01*
X11084960Y-6011980D02*
X11084960Y-6091980D01*
X11044960Y-6051980D02*
X11124960Y-6051980D01*
X11084960Y-6211980D02*
X11084960Y-6291980D01*
X11044960Y-6251980D02*
X11124960Y-6251980D01*
X11290700Y-7478400D02*
X11290700Y-7558400D01*
X11250700Y-7518400D02*
X11330700Y-7518400D01*
X11290700Y-7978400D02*
X11290700Y-8058400D01*
X11250700Y-8018400D02*
X11330700Y-8018400D01*
X11656460Y-4328800D02*
X11656460Y-4408800D01*
X11616460Y-4368800D02*
X11696460Y-4368800D01*
X11656460Y-4814980D02*
X11656460Y-4894980D01*
X11616460Y-4854980D02*
X11696460Y-4854980D01*
X11656460Y-5294000D02*
X11656460Y-5374000D01*
X11616460Y-5334000D02*
X11696460Y-5334000D01*
X11658600Y-5776600D02*
X11658600Y-5856600D01*
X11618600Y-5816600D02*
X11698600Y-5816600D01*
X11734800Y-9078600D02*
X11734800Y-9158600D01*
X11694800Y-9118600D02*
X11774800Y-9118600D01*
X11811000Y-7351400D02*
X11811000Y-7431400D01*
X11771000Y-7391400D02*
X11851000Y-7391400D01*
X11811000Y-8113400D02*
X11811000Y-8193400D01*
X11771000Y-8153400D02*
X11851000Y-8153400D01*
X11934800Y-9078600D02*
X11934800Y-9158600D01*
X11894800Y-9118600D02*
X11974800Y-9118600D01*
X12268200Y-7351400D02*
X12268200Y-7431400D01*
X12228200Y-7391400D02*
X12308200Y-7391400D01*
X12268200Y-8113400D02*
X12268200Y-8193400D01*
X12228200Y-8153400D02*
X12308200Y-8153400D01*
X12418460Y-4328800D02*
X12418460Y-4408800D01*
X12378460Y-4368800D02*
X12458460Y-4368800D01*
X12418460Y-4814980D02*
X12418460Y-4894980D01*
X12378460Y-4854980D02*
X12458460Y-4854980D01*
X12418460Y-5294000D02*
X12418460Y-5374000D01*
X12378460Y-5334000D02*
X12458460Y-5334000D01*
X12420600Y-5776600D02*
X12420600Y-5856600D01*
X12380600Y-5816600D02*
X12460600Y-5816600D01*
X12725400Y-7342280D02*
X12725400Y-7422280D01*
X12685400Y-7382280D02*
X12765400Y-7382280D01*
X12725400Y-8104280D02*
X12725400Y-8184280D01*
X12685400Y-8144280D02*
X12765400Y-8144280D01*
X13030200Y-3897000D02*
X13030200Y-3977000D01*
X12990200Y-3937000D02*
X13070200Y-3937000D01*
X13030200Y-4397000D02*
X13030200Y-4477000D01*
X12990200Y-4437000D02*
X13070200Y-4437000D01*
X13030200Y-4776880D02*
X13030200Y-4856880D01*
X12990200Y-4816880D02*
X13070200Y-4816880D01*
X13030200Y-5538880D02*
X13030200Y-5618880D01*
X12990200Y-5578880D02*
X13070200Y-5578880D01*
X13205860Y-7342280D02*
X13205860Y-7422280D01*
X13165860Y-7382280D02*
X13245860Y-7382280D01*
X13205860Y-8104280D02*
X13205860Y-8184280D01*
X13165860Y-8144280D02*
X13245860Y-8144280D01*
X13487400Y-6056000D02*
X13487400Y-6136000D01*
X13447400Y-6096000D02*
X13527400Y-6096000D01*
X13487400Y-6818000D02*
X13487400Y-6898000D01*
X13447400Y-6858000D02*
X13527400Y-6858000D01*
X13512800Y-3905000D02*
X13512800Y-3985000D01*
X13472800Y-3945000D02*
X13552800Y-3945000D01*
X13512800Y-4405000D02*
X13512800Y-4485000D01*
X13472800Y-4445000D02*
X13552800Y-4445000D01*
X13512800Y-4786000D02*
X13512800Y-4866000D01*
X13472800Y-4826000D02*
X13552800Y-4826000D01*
X13512800Y-5548000D02*
X13512800Y-5628000D01*
X13472800Y-5588000D02*
X13552800Y-5588000D01*
X13716000Y-7338300D02*
X13716000Y-7418300D01*
X13676000Y-7378300D02*
X13756000Y-7378300D01*
X13716000Y-8100300D02*
X13716000Y-8180300D01*
X13676000Y-8140300D02*
X13756000Y-8140300D01*
X13741400Y-6056000D02*
X13741400Y-6136000D01*
X13701400Y-6096000D02*
X13781400Y-6096000D01*
X13741400Y-6818000D02*
X13741400Y-6898000D01*
X13701400Y-6858000D02*
X13781400Y-6858000D01*
X13995400Y-4786000D02*
X13995400Y-4866000D01*
X13955400Y-4826000D02*
X14035400Y-4826000D01*
X13995400Y-5548000D02*
X13995400Y-5628000D01*
X13955400Y-5588000D02*
X14035400Y-5588000D01*
X13995400Y-6056000D02*
X13995400Y-6136000D01*
X13955400Y-6096000D02*
X14035400Y-6096000D01*
X13995400Y-6818000D02*
X13995400Y-6898000D01*
X13955400Y-6858000D02*
X14035400Y-6858000D01*
X14097000Y-4074800D02*
X14097000Y-4154800D01*
X14057000Y-4114800D02*
X14137000Y-4114800D01*
X14097000Y-4274800D02*
X14097000Y-4354800D01*
X14057000Y-4314800D02*
X14137000Y-4314800D01*
X14181860Y-7338300D02*
X14181860Y-7418300D01*
X14141860Y-7378300D02*
X14221860Y-7378300D01*
X14181860Y-8100300D02*
X14181860Y-8180300D01*
X14141860Y-8140300D02*
X14221860Y-8140300D01*
X14198600Y-8469000D02*
X14198600Y-8549000D01*
X14158600Y-8509000D02*
X14238600Y-8509000D01*
X14198600Y-9231000D02*
X14198600Y-9311000D01*
X14158600Y-9271000D02*
X14238600Y-9271000D01*
X14249400Y-6056000D02*
X14249400Y-6136000D01*
X14209400Y-6096000D02*
X14289400Y-6096000D01*
X14249400Y-6818000D02*
X14249400Y-6898000D01*
X14209400Y-6858000D02*
X14289400Y-6858000D01*
X14478000Y-4776880D02*
X14478000Y-4856880D01*
X14438000Y-4816880D02*
X14518000Y-4816880D01*
X14478000Y-5538880D02*
X14478000Y-5618880D01*
X14438000Y-5578880D02*
X14518000Y-5578880D01*
X14503400Y-6056000D02*
X14503400Y-6136000D01*
X14463400Y-6096000D02*
X14543400Y-6096000D01*
X14503400Y-6818000D02*
X14503400Y-6898000D01*
X14463400Y-6858000D02*
X14543400Y-6858000D01*
X14681200Y-7338300D02*
X14681200Y-7418300D01*
X14641200Y-7378300D02*
X14721200Y-7378300D01*
X14681200Y-8100300D02*
X14681200Y-8180300D01*
X14641200Y-8140300D02*
X14721200Y-8140300D01*
X14681200Y-8469000D02*
X14681200Y-8549000D01*
X14641200Y-8509000D02*
X14721200Y-8509000D01*
X14681200Y-9231000D02*
X14681200Y-9311000D01*
X14641200Y-9271000D02*
X14721200Y-9271000D01*
X14757400Y-6056000D02*
X14757400Y-6136000D01*
X14717400Y-6096000D02*
X14797400Y-6096000D01*
X14757400Y-6818000D02*
X14757400Y-6898000D01*
X14717400Y-6858000D02*
X14797400Y-6858000D01*
X14948300Y-4776880D02*
X14948300Y-4856880D01*
X14908300Y-4816880D02*
X14988300Y-4816880D01*
X14948300Y-5538880D02*
X14948300Y-5618880D01*
X14908300Y-5578880D02*
X14988300Y-5578880D01*
X15011400Y-6056000D02*
X15011400Y-6136000D01*
X14971400Y-6096000D02*
X15051400Y-6096000D01*
X15011400Y-6818000D02*
X15011400Y-6898000D01*
X14971400Y-6858000D02*
X15051400Y-6858000D01*
X15163800Y-8469000D02*
X15163800Y-8549000D01*
X15123800Y-8509000D02*
X15203800Y-8509000D01*
X15163800Y-9231000D02*
X15163800Y-9311000D01*
X15123800Y-9271000D02*
X15203800Y-9271000D01*
X15189200Y-7338300D02*
X15189200Y-7418300D01*
X15149200Y-7378300D02*
X15229200Y-7378300D01*
X15189200Y-8100300D02*
X15189200Y-8180300D01*
X15149200Y-8140300D02*
X15229200Y-8140300D01*
X15417800Y-3693800D02*
X15417800Y-3773800D01*
X15377800Y-3733800D02*
X15457800Y-3733800D01*
X15417800Y-4455800D02*
X15417800Y-4535800D01*
X15377800Y-4495800D02*
X15457800Y-4495800D01*
X15417800Y-4786000D02*
X15417800Y-4866000D01*
X15377800Y-4826000D02*
X15457800Y-4826000D01*
X15417800Y-5548000D02*
X15417800Y-5628000D01*
X15377800Y-5588000D02*
X15457800Y-5588000D01*
X15671800Y-7351400D02*
X15671800Y-7431400D01*
X15631800Y-7391400D02*
X15711800Y-7391400D01*
X15671800Y-8113400D02*
X15671800Y-8193400D01*
X15631800Y-8153400D02*
X15711800Y-8153400D01*
X15671800Y-8494400D02*
X15671800Y-8574400D01*
X15631800Y-8534400D02*
X15711800Y-8534400D01*
X15671800Y-9256400D02*
X15671800Y-9336400D01*
X15631800Y-9296400D02*
X15711800Y-9296400D01*
X16154400Y-7351400D02*
X16154400Y-7431400D01*
X16114400Y-7391400D02*
X16194400Y-7391400D01*
X16154400Y-8113400D02*
X16154400Y-8193400D01*
X16114400Y-8153400D02*
X16194400Y-8153400D01*
X16179800Y-8494400D02*
X16179800Y-8574400D01*
X16139800Y-8534400D02*
X16219800Y-8534400D01*
X16179800Y-9256400D02*
X16179800Y-9336400D01*
X16139800Y-9296400D02*
X16219800Y-9296400D01*
X16637000Y-7351400D02*
X16637000Y-7431400D01*
X16597000Y-7391400D02*
X16677000Y-7391400D01*
X16637000Y-8113400D02*
X16637000Y-8193400D01*
X16597000Y-8153400D02*
X16677000Y-8153400D01*
X16662400Y-8494400D02*
X16662400Y-8574400D01*
X16622400Y-8534400D02*
X16702400Y-8534400D01*
X16662400Y-9256400D02*
X16662400Y-9336400D01*
X16622400Y-9296400D02*
X16702400Y-9296400D01*
X3283020Y-3714820D02*
X3283020Y-3651180D01*
X3219380Y-3651180D01*
X3219380Y-3714820D01*
X3283020Y-3714820D01*
X3283020Y-4476820D02*
X3283020Y-4413180D01*
X3219380Y-4413180D01*
X3219380Y-4476820D01*
X3283020Y-4476820D01*
X3283020Y-4807020D02*
X3283020Y-4743380D01*
X3219380Y-4743380D01*
X3219380Y-4807020D01*
X3283020Y-4807020D01*
X3283020Y-5569020D02*
X3283020Y-5505380D01*
X3219380Y-5505380D01*
X3219380Y-5569020D01*
X3283020Y-5569020D01*
X11817420Y-3664020D02*
X11817420Y-3600380D01*
X11753780Y-3600380D01*
X11753780Y-3664020D01*
X11817420Y-3664020D01*
X11817420Y-3918020D02*
X11817420Y-3854380D01*
X11753780Y-3854380D01*
X11753780Y-3918020D01*
X11817420Y-3918020D01*
X13747820Y-8540820D02*
X13747820Y-8477180D01*
X13684180Y-8477180D01*
X13684180Y-8540820D01*
X13747820Y-8540820D01*
X13747820Y-9302820D02*
X13747820Y-9239180D01*
X13684180Y-9239180D01*
X13684180Y-9302820D01*
X13747820Y-9302820D01*
X3962400Y-3578100D02*
X4009900Y-3530600D01*
X3962400Y-3483100D01*
X3914900Y-3530600D01*
X3962400Y-3578100D01*
X3962400Y-3828100D02*
X4009900Y-3780600D01*
X3962400Y-3733100D01*
X3914900Y-3780600D01*
X3962400Y-3828100D01*
X3962400Y-4078100D02*
X4009900Y-4030600D01*
X3962400Y-3983100D01*
X3914900Y-4030600D01*
X3962400Y-4078100D01*
X3962400Y-5940300D02*
X4009900Y-5892800D01*
X3962400Y-5845300D01*
X3914900Y-5892800D01*
X3962400Y-5940300D01*
X3962400Y-6190300D02*
X4009900Y-6142800D01*
X3962400Y-6095300D01*
X3914900Y-6142800D01*
X3962400Y-6190300D01*
X3962400Y-6440300D02*
X4009900Y-6392800D01*
X3962400Y-6345300D01*
X3914900Y-6392800D01*
X3962400Y-6440300D01*
X3966280Y-4770300D02*
X4013780Y-4722800D01*
X3966280Y-4675300D01*
X3918780Y-4722800D01*
X3966280Y-4770300D01*
X3966280Y-5020300D02*
X4013780Y-4972800D01*
X3966280Y-4925300D01*
X3918780Y-4972800D01*
X3966280Y-5020300D01*
X3966280Y-5270300D02*
X4013780Y-5222800D01*
X3966280Y-5175300D01*
X3918780Y-5222800D01*
X3966280Y-5270300D01*
X4190180Y-8251700D02*
X4237680Y-8204200D01*
X4190180Y-8156700D01*
X4142680Y-8204200D01*
X4190180Y-8251700D01*
X4199000Y-8912100D02*
X4246500Y-8864600D01*
X4199000Y-8817100D01*
X4151500Y-8864600D01*
X4199000Y-8912100D01*
X4440180Y-8251700D02*
X4487680Y-8204200D01*
X4440180Y-8156700D01*
X4392680Y-8204200D01*
X4440180Y-8251700D01*
X4449000Y-8912100D02*
X4496500Y-8864600D01*
X4449000Y-8817100D01*
X4401500Y-8864600D01*
X4449000Y-8912100D01*
X4597400Y-4771900D02*
X4644900Y-4724400D01*
X4597400Y-4676900D01*
X4549900Y-4724400D01*
X4597400Y-4771900D01*
X4597400Y-5021900D02*
X4644900Y-4974400D01*
X4597400Y-4926900D01*
X4549900Y-4974400D01*
X4597400Y-5021900D01*
X4597400Y-5271900D02*
X4644900Y-5224400D01*
X4597400Y-5176900D01*
X4549900Y-5224400D01*
X4597400Y-5271900D01*
X4597400Y-5940300D02*
X4644900Y-5892800D01*
X4597400Y-5845300D01*
X4549900Y-5892800D01*
X4597400Y-5940300D01*
X4597400Y-6190300D02*
X4644900Y-6142800D01*
X4597400Y-6095300D01*
X4549900Y-6142800D01*
X4597400Y-6190300D01*
X4597400Y-6440300D02*
X4644900Y-6392800D01*
X4597400Y-6345300D01*
X4549900Y-6392800D01*
X4597400Y-6440300D01*
X4690180Y-8251700D02*
X4737680Y-8204200D01*
X4690180Y-8156700D01*
X4642680Y-8204200D01*
X4690180Y-8251700D01*
X4699000Y-8912100D02*
X4746500Y-8864600D01*
X4699000Y-8817100D01*
X4651500Y-8864600D01*
X4699000Y-8912100D01*
X5537200Y-3687700D02*
X5584700Y-3640200D01*
X5537200Y-3592700D01*
X5489700Y-3640200D01*
X5537200Y-3687700D01*
X5537200Y-3937700D02*
X5584700Y-3890200D01*
X5537200Y-3842700D01*
X5489700Y-3890200D01*
X5537200Y-3937700D01*
X5537200Y-4187700D02*
X5584700Y-4140200D01*
X5537200Y-4092700D01*
X5489700Y-4140200D01*
X5537200Y-4187700D01*
X6188780Y-3686100D02*
X6236280Y-3638600D01*
X6188780Y-3591100D01*
X6141280Y-3638600D01*
X6188780Y-3686100D01*
X6188780Y-3936100D02*
X6236280Y-3888600D01*
X6188780Y-3841100D01*
X6141280Y-3888600D01*
X6188780Y-3936100D01*
X6188780Y-4186100D02*
X6236280Y-4138600D01*
X6188780Y-4091100D01*
X6141280Y-4138600D01*
X6188780Y-4186100D01*
X6844100Y-3686100D02*
X6891600Y-3638600D01*
X6844100Y-3591100D01*
X6796600Y-3638600D01*
X6844100Y-3686100D01*
X6844100Y-3936100D02*
X6891600Y-3888600D01*
X6844100Y-3841100D01*
X6796600Y-3888600D01*
X6844100Y-3936100D01*
X6844100Y-4186100D02*
X6891600Y-4138600D01*
X6844100Y-4091100D01*
X6796600Y-4138600D01*
X6844100Y-4186100D01*
X9329800Y-9191500D02*
X9377300Y-9144000D01*
X9329800Y-9096500D01*
X9282300Y-9144000D01*
X9329800Y-9191500D01*
X9579800Y-9191500D02*
X9627300Y-9144000D01*
X9579800Y-9096500D01*
X9532300Y-9144000D01*
X9579800Y-9191500D01*
X9677400Y-3705100D02*
X9724900Y-3657600D01*
X9677400Y-3610100D01*
X9629900Y-3657600D01*
X9677400Y-3705100D01*
X9829800Y-9191500D02*
X9877300Y-9144000D01*
X9829800Y-9096500D01*
X9782300Y-9144000D01*
X9829800Y-9191500D01*
X9927400Y-3705100D02*
X9974900Y-3657600D01*
X9927400Y-3610100D01*
X9879900Y-3657600D01*
X9927400Y-3705100D01*
X10177400Y-3705100D02*
X10224900Y-3657600D01*
X10177400Y-3610100D01*
X10129900Y-3657600D01*
X10177400Y-3705100D01*
X10523600Y-9191500D02*
X10571100Y-9144000D01*
X10523600Y-9096500D01*
X10476100Y-9144000D01*
X10523600Y-9191500D01*
X10773600Y-9191500D02*
X10821100Y-9144000D01*
X10773600Y-9096500D01*
X10726100Y-9144000D01*
X10773600Y-9191500D01*
X11023600Y-9191500D02*
X11071100Y-9144000D01*
X11023600Y-9096500D01*
X10976100Y-9144000D01*
X11023600Y-9191500D01*
X16052800Y-3882900D02*
X16100300Y-3835400D01*
X16052800Y-3787900D01*
X16005300Y-3835400D01*
X16052800Y-3882900D01*
X16052800Y-4543300D02*
X16100300Y-4495800D01*
X16052800Y-4448300D01*
X16005300Y-4495800D01*
X16052800Y-4543300D01*
X16052800Y-5203700D02*
X16100300Y-5156200D01*
X16052800Y-5108700D01*
X16005300Y-5156200D01*
X16052800Y-5203700D01*
X16052800Y-5864100D02*
X16100300Y-5816600D01*
X16052800Y-5769100D01*
X16005300Y-5816600D01*
X16052800Y-5864100D01*
X16052800Y-6524500D02*
X16100300Y-6477000D01*
X16052800Y-6429500D01*
X16005300Y-6477000D01*
X16052800Y-6524500D01*
X16302800Y-3882900D02*
X16350300Y-3835400D01*
X16302800Y-3787900D01*
X16255300Y-3835400D01*
X16302800Y-3882900D01*
X16302800Y-4543300D02*
X16350300Y-4495800D01*
X16302800Y-4448300D01*
X16255300Y-4495800D01*
X16302800Y-4543300D01*
X16302800Y-5203700D02*
X16350300Y-5156200D01*
X16302800Y-5108700D01*
X16255300Y-5156200D01*
X16302800Y-5203700D01*
X16302800Y-5864100D02*
X16350300Y-5816600D01*
X16302800Y-5769100D01*
X16255300Y-5816600D01*
X16302800Y-5864100D01*
X16302800Y-6524500D02*
X16350300Y-6477000D01*
X16302800Y-6429500D01*
X16255300Y-6477000D01*
X16302800Y-6524500D01*
X16552800Y-3882900D02*
X16600300Y-3835400D01*
X16552800Y-3787900D01*
X16505300Y-3835400D01*
X16552800Y-3882900D01*
X16552800Y-4543300D02*
X16600300Y-4495800D01*
X16552800Y-4448300D01*
X16505300Y-4495800D01*
X16552800Y-4543300D01*
X16552800Y-5203700D02*
X16600300Y-5156200D01*
X16552800Y-5108700D01*
X16505300Y-5156200D01*
X16552800Y-5203700D01*
X16552800Y-5864100D02*
X16600300Y-5816600D01*
X16552800Y-5769100D01*
X16505300Y-5816600D01*
X16552800Y-5864100D01*
X16552800Y-6524500D02*
X16600300Y-6477000D01*
X16552800Y-6429500D01*
X16505300Y-6477000D01*
X16552800Y-6524500D01*
X7443000Y-3840200D02*
X7543000Y-3940200D01*
X7543000Y-3840200D02*
X7443000Y-3940200D01*
X7543000Y-3890200D02*
G75*
G03*
X7543000Y-3890200I-50000J0D01*
G01*
X7443000Y-4090200D02*
X7543000Y-4190200D01*
X7543000Y-4090200D02*
X7443000Y-4190200D01*
X7543000Y-4140200D02*
G75*
G03*
X7543000Y-4140200I-50000J0D01*
G01*
X8459000Y-3734600D02*
X8559000Y-3834600D01*
X8559000Y-3734600D02*
X8459000Y-3834600D01*
X8559000Y-3784600D02*
G75*
G03*
X8559000Y-3784600I-50000J0D01*
G01*
X8459000Y-4234600D02*
X8559000Y-4334600D01*
X8559000Y-4234600D02*
X8459000Y-4334600D01*
X8559000Y-4284600D02*
G75*
G03*
X8559000Y-4284600I-50000J0D01*
G01*
X9891960Y-4369600D02*
X9991960Y-4469600D01*
X9991960Y-4369600D02*
X9891960Y-4469600D01*
X9991960Y-4419600D02*
G75*
G03*
X9991960Y-4419600I-50000J0D01*
G01*
X9891960Y-4869600D02*
X9991960Y-4969600D01*
X9991960Y-4869600D02*
X9891960Y-4969600D01*
X9991960Y-4919600D02*
G75*
G03*
X9991960Y-4919600I-50000J0D01*
G01*
X9891960Y-5511480D02*
X9991960Y-5611480D01*
X9991960Y-5511480D02*
X9891960Y-5611480D01*
X9991960Y-5561480D02*
G75*
G03*
X9991960Y-5561480I-50000J0D01*
G01*
X9891960Y-6011480D02*
X9991960Y-6111480D01*
X9991960Y-6011480D02*
X9891960Y-6111480D01*
X9991960Y-6061480D02*
G75*
G03*
X9991960Y-6061480I-50000J0D01*
G01*
X9894500Y-6624000D02*
X9994500Y-6724000D01*
X9994500Y-6624000D02*
X9894500Y-6724000D01*
X9994500Y-6674000D02*
G75*
G03*
X9994500Y-6674000I-50000J0D01*
G01*
X9894500Y-7124000D02*
X9994500Y-7224000D01*
X9994500Y-7124000D02*
X9894500Y-7224000D01*
X9994500Y-7174000D02*
G75*
G03*
X9994500Y-7174000I-50000J0D01*
G01*
X10948200Y-6735800D02*
X11048200Y-6835800D01*
X11048200Y-6735800D02*
X10948200Y-6835800D01*
X11048200Y-6785800D02*
G75*
G03*
X11048200Y-6785800I-50000J0D01*
G01*
X10948200Y-6985800D02*
X11048200Y-7085800D01*
X11048200Y-6985800D02*
X10948200Y-7085800D01*
X11048200Y-7035800D02*
G75*
G03*
X11048200Y-7035800I-50000J0D01*
G01*
D12*
X2823928Y-10323414D02*
X2823928Y-10023414D01*
X2895357Y-10023414D01*
X2938214Y-10037700D01*
X2966786Y-10066272D01*
X2981071Y-10094843D01*
X2995357Y-10151986D01*
X2995357Y-10194843D01*
X2981071Y-10251986D01*
X2966786Y-10280557D01*
X2938214Y-10309129D01*
X2895357Y-10323414D01*
X2823928Y-10323414D01*
X3123928Y-10323414D02*
X3123928Y-10123414D01*
X3123928Y-10180557D02*
X3138214Y-10151986D01*
X3152500Y-10137700D01*
X3181071Y-10123414D01*
X3209643Y-10123414D01*
X3309643Y-10323414D02*
X3309643Y-10123414D01*
X3309643Y-10023414D02*
X3295357Y-10037700D01*
X3309643Y-10051986D01*
X3323928Y-10037700D01*
X3309643Y-10023414D01*
X3309643Y-10051986D01*
X3495357Y-10323414D02*
X3466786Y-10309129D01*
X3452500Y-10280557D01*
X3452500Y-10023414D01*
X3652500Y-10323414D02*
X3623928Y-10309129D01*
X3609643Y-10280557D01*
X3609643Y-10023414D01*
X3995357Y-10323414D02*
X3995357Y-10023414D01*
X4095357Y-10237700D01*
X4195357Y-10023414D01*
X4195357Y-10323414D01*
X4466786Y-10323414D02*
X4466786Y-10166272D01*
X4452500Y-10137700D01*
X4423928Y-10123414D01*
X4366786Y-10123414D01*
X4338214Y-10137700D01*
X4466786Y-10309129D02*
X4438214Y-10323414D01*
X4366786Y-10323414D01*
X4338214Y-10309129D01*
X4323928Y-10280557D01*
X4323928Y-10251986D01*
X4338214Y-10223414D01*
X4366786Y-10209129D01*
X4438214Y-10209129D01*
X4466786Y-10194843D01*
X4609643Y-10123414D02*
X4609643Y-10423414D01*
X4609643Y-10137700D02*
X4638214Y-10123414D01*
X4695357Y-10123414D01*
X4723928Y-10137700D01*
X4738214Y-10151986D01*
X4752500Y-10180557D01*
X4752500Y-10266272D01*
X4738214Y-10294843D01*
X4723928Y-10309129D01*
X4695357Y-10323414D01*
X4638214Y-10323414D01*
X4609643Y-10309129D01*
X4881071Y-10294843D02*
X4895357Y-10309129D01*
X4881071Y-10323414D01*
X4866786Y-10309129D01*
X4881071Y-10294843D01*
X4881071Y-10323414D01*
X4881071Y-10137700D02*
X4895357Y-10151986D01*
X4881071Y-10166272D01*
X4866786Y-10151986D01*
X4881071Y-10137700D01*
X4881071Y-10166272D01*
X2497500Y-10797700D02*
X2537500Y-10837700D01*
X2537500Y-10797700D02*
X2497500Y-10837700D01*
X2881071Y-10653414D02*
X2909643Y-10653414D01*
X2938214Y-10667700D01*
X2952500Y-10681986D01*
X2966786Y-10710557D01*
X2981071Y-10767700D01*
X2981071Y-10839129D01*
X2966786Y-10896272D01*
X2952500Y-10924843D01*
X2938214Y-10939129D01*
X2909643Y-10953414D01*
X2881071Y-10953414D01*
X2852500Y-10939129D01*
X2838214Y-10924843D01*
X2823928Y-10896272D01*
X2809643Y-10839129D01*
X2809643Y-10767700D01*
X2823928Y-10710557D01*
X2838214Y-10681986D01*
X2852500Y-10667700D01*
X2881071Y-10653414D01*
X3109643Y-10924843D02*
X3123928Y-10939129D01*
X3109643Y-10953414D01*
X3095357Y-10939129D01*
X3109643Y-10924843D01*
X3109643Y-10953414D01*
X3381071Y-10753414D02*
X3381071Y-10953414D01*
X3309643Y-10639129D02*
X3238214Y-10853414D01*
X3423928Y-10853414D01*
X3595357Y-10653414D02*
X3623928Y-10653414D01*
X3652500Y-10667700D01*
X3666786Y-10681986D01*
X3681071Y-10710557D01*
X3695357Y-10767700D01*
X3695357Y-10839129D01*
X3681071Y-10896272D01*
X3666786Y-10924843D01*
X3652500Y-10939129D01*
X3623928Y-10953414D01*
X3595357Y-10953414D01*
X3566786Y-10939129D01*
X3552500Y-10924843D01*
X3538214Y-10896272D01*
X3523928Y-10839129D01*
X3523928Y-10767700D01*
X3538214Y-10710557D01*
X3552500Y-10681986D01*
X3566786Y-10667700D01*
X3595357Y-10653414D01*
X3881071Y-10653414D02*
X3909643Y-10653414D01*
X3938214Y-10667700D01*
X3952500Y-10681986D01*
X3966786Y-10710557D01*
X3981071Y-10767700D01*
X3981071Y-10839129D01*
X3966786Y-10896272D01*
X3952500Y-10924843D01*
X3938214Y-10939129D01*
X3909643Y-10953414D01*
X3881071Y-10953414D01*
X3852500Y-10939129D01*
X3838214Y-10924843D01*
X3823928Y-10896272D01*
X3809643Y-10839129D01*
X3809643Y-10767700D01*
X3823928Y-10710557D01*
X3838214Y-10681986D01*
X3852500Y-10667700D01*
X3881071Y-10653414D01*
X4109643Y-10953414D02*
X4109643Y-10753414D01*
X4109643Y-10781986D02*
X4123928Y-10767700D01*
X4152500Y-10753414D01*
X4195357Y-10753414D01*
X4223928Y-10767700D01*
X4238214Y-10796272D01*
X4238214Y-10953414D01*
X4238214Y-10796272D02*
X4252500Y-10767700D01*
X4281071Y-10753414D01*
X4323928Y-10753414D01*
X4352500Y-10767700D01*
X4366786Y-10796272D01*
X4366786Y-10953414D01*
X4509643Y-10953414D02*
X4509643Y-10753414D01*
X4509643Y-10781986D02*
X4523928Y-10767700D01*
X4552500Y-10753414D01*
X4595357Y-10753414D01*
X4623928Y-10767700D01*
X4638214Y-10796272D01*
X4638214Y-10953414D01*
X4638214Y-10796272D02*
X4652500Y-10767700D01*
X4681071Y-10753414D01*
X4723928Y-10753414D01*
X4752500Y-10767700D01*
X4766786Y-10796272D01*
X4766786Y-10953414D01*
X5352500Y-10639129D02*
X5095357Y-11024843D01*
X5738214Y-10653414D02*
X5766786Y-10653414D01*
X5795357Y-10667700D01*
X5809643Y-10681986D01*
X5823928Y-10710557D01*
X5838214Y-10767700D01*
X5838214Y-10839129D01*
X5823928Y-10896272D01*
X5809643Y-10924843D01*
X5795357Y-10939129D01*
X5766786Y-10953414D01*
X5738214Y-10953414D01*
X5709643Y-10939129D01*
X5695357Y-10924843D01*
X5681071Y-10896272D01*
X5666786Y-10839129D01*
X5666786Y-10767700D01*
X5681071Y-10710557D01*
X5695357Y-10681986D01*
X5709643Y-10667700D01*
X5738214Y-10653414D01*
X5966786Y-10924843D02*
X5981071Y-10939129D01*
X5966786Y-10953414D01*
X5952500Y-10939129D01*
X5966786Y-10924843D01*
X5966786Y-10953414D01*
X6166786Y-10653414D02*
X6195357Y-10653414D01*
X6223928Y-10667700D01*
X6238214Y-10681986D01*
X6252500Y-10710557D01*
X6266786Y-10767700D01*
X6266786Y-10839129D01*
X6252500Y-10896272D01*
X6238214Y-10924843D01*
X6223928Y-10939129D01*
X6195357Y-10953414D01*
X6166786Y-10953414D01*
X6138214Y-10939129D01*
X6123928Y-10924843D01*
X6109643Y-10896272D01*
X6095357Y-10839129D01*
X6095357Y-10767700D01*
X6109643Y-10710557D01*
X6123928Y-10681986D01*
X6138214Y-10667700D01*
X6166786Y-10653414D01*
X6552500Y-10953414D02*
X6381071Y-10953414D01*
X6466786Y-10953414D02*
X6466786Y-10653414D01*
X6438214Y-10696272D01*
X6409643Y-10724843D01*
X6381071Y-10739129D01*
X6823928Y-10653414D02*
X6681071Y-10653414D01*
X6666786Y-10796272D01*
X6681071Y-10781986D01*
X6709643Y-10767700D01*
X6781071Y-10767700D01*
X6809643Y-10781986D01*
X6823928Y-10796272D01*
X6838214Y-10824843D01*
X6838214Y-10896272D01*
X6823928Y-10924843D01*
X6809643Y-10939129D01*
X6781071Y-10953414D01*
X6709643Y-10953414D01*
X6681071Y-10939129D01*
X6666786Y-10924843D01*
X6938214Y-10653414D02*
X7138214Y-10653414D01*
X7009643Y-10953414D01*
X7238214Y-10653414D02*
X7238214Y-10710557D01*
X7352500Y-10653414D02*
X7352500Y-10710557D01*
X7795357Y-11067700D02*
X7781071Y-11053414D01*
X7752500Y-11010557D01*
X7738214Y-10981986D01*
X7723928Y-10939129D01*
X7709643Y-10867700D01*
X7709643Y-10810557D01*
X7723928Y-10739129D01*
X7738214Y-10696272D01*
X7752500Y-10667700D01*
X7781071Y-10624843D01*
X7795357Y-10610557D01*
X7881071Y-10653414D02*
X8081071Y-10653414D01*
X7952500Y-10953414D01*
X8352500Y-10953414D02*
X8181071Y-10953414D01*
X8266786Y-10953414D02*
X8266786Y-10653414D01*
X8238214Y-10696272D01*
X8209643Y-10724843D01*
X8181071Y-10739129D01*
X8709643Y-10953414D02*
X8709643Y-10653414D01*
X8838214Y-10953414D02*
X8838214Y-10796272D01*
X8823928Y-10767700D01*
X8795357Y-10753414D01*
X8752500Y-10753414D01*
X8723928Y-10767700D01*
X8709643Y-10781986D01*
X9023928Y-10953414D02*
X8995357Y-10939129D01*
X8981071Y-10924843D01*
X8966786Y-10896272D01*
X8966786Y-10810557D01*
X8981071Y-10781986D01*
X8995357Y-10767700D01*
X9023928Y-10753414D01*
X9066786Y-10753414D01*
X9095357Y-10767700D01*
X9109643Y-10781986D01*
X9123928Y-10810557D01*
X9123928Y-10896272D01*
X9109643Y-10924843D01*
X9095357Y-10939129D01*
X9066786Y-10953414D01*
X9023928Y-10953414D01*
X9295357Y-10953414D02*
X9266786Y-10939129D01*
X9252500Y-10910557D01*
X9252500Y-10653414D01*
X9523928Y-10939129D02*
X9495357Y-10953414D01*
X9438214Y-10953414D01*
X9409643Y-10939129D01*
X9395357Y-10910557D01*
X9395357Y-10796272D01*
X9409643Y-10767700D01*
X9438214Y-10753414D01*
X9495357Y-10753414D01*
X9523928Y-10767700D01*
X9538214Y-10796272D01*
X9538214Y-10824843D01*
X9395357Y-10853414D01*
X9652500Y-10939129D02*
X9681071Y-10953414D01*
X9738214Y-10953414D01*
X9766786Y-10939129D01*
X9781071Y-10910557D01*
X9781071Y-10896272D01*
X9766786Y-10867700D01*
X9738214Y-10853414D01*
X9695357Y-10853414D01*
X9666786Y-10839129D01*
X9652500Y-10810557D01*
X9652500Y-10796272D01*
X9666786Y-10767700D01*
X9695357Y-10753414D01*
X9738214Y-10753414D01*
X9766786Y-10767700D01*
X9881071Y-11067700D02*
X9895357Y-11053414D01*
X9923928Y-11010557D01*
X9938214Y-10981986D01*
X9952500Y-10939129D01*
X9966786Y-10867700D01*
X9966786Y-10810557D01*
X9952500Y-10739129D01*
X9938214Y-10696272D01*
X9923928Y-10667700D01*
X9895357Y-10624843D01*
X9881071Y-10610557D01*
X2537500Y-11213700D02*
G75*
G03*
X2537500Y-11213700I-37500J0D01*
G01*
X2881071Y-11049414D02*
X2909643Y-11049414D01*
X2938214Y-11063700D01*
X2952500Y-11077986D01*
X2966786Y-11106557D01*
X2981071Y-11163700D01*
X2981071Y-11235129D01*
X2966786Y-11292271D01*
X2952500Y-11320843D01*
X2938214Y-11335129D01*
X2909643Y-11349414D01*
X2881071Y-11349414D01*
X2852500Y-11335129D01*
X2838214Y-11320843D01*
X2823928Y-11292271D01*
X2809643Y-11235129D01*
X2809643Y-11163700D01*
X2823928Y-11106557D01*
X2838214Y-11077986D01*
X2852500Y-11063700D01*
X2881071Y-11049414D01*
X3109643Y-11320843D02*
X3123928Y-11335129D01*
X3109643Y-11349414D01*
X3095357Y-11335129D01*
X3109643Y-11320843D01*
X3109643Y-11349414D01*
X3223928Y-11049414D02*
X3423928Y-11049414D01*
X3295357Y-11349414D01*
X3681071Y-11049414D02*
X3538214Y-11049414D01*
X3523928Y-11192271D01*
X3538214Y-11177986D01*
X3566786Y-11163700D01*
X3638214Y-11163700D01*
X3666786Y-11177986D01*
X3681071Y-11192271D01*
X3695357Y-11220843D01*
X3695357Y-11292271D01*
X3681071Y-11320843D01*
X3666786Y-11335129D01*
X3638214Y-11349414D01*
X3566786Y-11349414D01*
X3538214Y-11335129D01*
X3523928Y-11320843D01*
X3881071Y-11049414D02*
X3909643Y-11049414D01*
X3938214Y-11063700D01*
X3952500Y-11077986D01*
X3966786Y-11106557D01*
X3981071Y-11163700D01*
X3981071Y-11235129D01*
X3966786Y-11292271D01*
X3952500Y-11320843D01*
X3938214Y-11335129D01*
X3909643Y-11349414D01*
X3881071Y-11349414D01*
X3852500Y-11335129D01*
X3838214Y-11320843D01*
X3823928Y-11292271D01*
X3809643Y-11235129D01*
X3809643Y-11163700D01*
X3823928Y-11106557D01*
X3838214Y-11077986D01*
X3852500Y-11063700D01*
X3881071Y-11049414D01*
X4109643Y-11349414D02*
X4109643Y-11149414D01*
X4109643Y-11177986D02*
X4123928Y-11163700D01*
X4152500Y-11149414D01*
X4195357Y-11149414D01*
X4223928Y-11163700D01*
X4238214Y-11192271D01*
X4238214Y-11349414D01*
X4238214Y-11192271D02*
X4252500Y-11163700D01*
X4281071Y-11149414D01*
X4323928Y-11149414D01*
X4352500Y-11163700D01*
X4366786Y-11192271D01*
X4366786Y-11349414D01*
X4509643Y-11349414D02*
X4509643Y-11149414D01*
X4509643Y-11177986D02*
X4523928Y-11163700D01*
X4552500Y-11149414D01*
X4595357Y-11149414D01*
X4623928Y-11163700D01*
X4638214Y-11192271D01*
X4638214Y-11349414D01*
X4638214Y-11192271D02*
X4652500Y-11163700D01*
X4681071Y-11149414D01*
X4723928Y-11149414D01*
X4752500Y-11163700D01*
X4766786Y-11192271D01*
X4766786Y-11349414D01*
X5352500Y-11035129D02*
X5095357Y-11420843D01*
X5738214Y-11049414D02*
X5766786Y-11049414D01*
X5795357Y-11063700D01*
X5809643Y-11077986D01*
X5823928Y-11106557D01*
X5838214Y-11163700D01*
X5838214Y-11235129D01*
X5823928Y-11292271D01*
X5809643Y-11320843D01*
X5795357Y-11335129D01*
X5766786Y-11349414D01*
X5738214Y-11349414D01*
X5709643Y-11335129D01*
X5695357Y-11320843D01*
X5681071Y-11292271D01*
X5666786Y-11235129D01*
X5666786Y-11163700D01*
X5681071Y-11106557D01*
X5695357Y-11077986D01*
X5709643Y-11063700D01*
X5738214Y-11049414D01*
X5966786Y-11320843D02*
X5981071Y-11335129D01*
X5966786Y-11349414D01*
X5952500Y-11335129D01*
X5966786Y-11320843D01*
X5966786Y-11349414D01*
X6166786Y-11049414D02*
X6195357Y-11049414D01*
X6223928Y-11063700D01*
X6238214Y-11077986D01*
X6252500Y-11106557D01*
X6266786Y-11163700D01*
X6266786Y-11235129D01*
X6252500Y-11292271D01*
X6238214Y-11320843D01*
X6223928Y-11335129D01*
X6195357Y-11349414D01*
X6166786Y-11349414D01*
X6138214Y-11335129D01*
X6123928Y-11320843D01*
X6109643Y-11292271D01*
X6095357Y-11235129D01*
X6095357Y-11163700D01*
X6109643Y-11106557D01*
X6123928Y-11077986D01*
X6138214Y-11063700D01*
X6166786Y-11049414D01*
X6381071Y-11077986D02*
X6395357Y-11063700D01*
X6423928Y-11049414D01*
X6495357Y-11049414D01*
X6523928Y-11063700D01*
X6538214Y-11077986D01*
X6552500Y-11106557D01*
X6552500Y-11135129D01*
X6538214Y-11177986D01*
X6366786Y-11349414D01*
X6552500Y-11349414D01*
X6695357Y-11349414D02*
X6752500Y-11349414D01*
X6781071Y-11335129D01*
X6795357Y-11320843D01*
X6823928Y-11277986D01*
X6838214Y-11220843D01*
X6838214Y-11106557D01*
X6823928Y-11077986D01*
X6809643Y-11063700D01*
X6781071Y-11049414D01*
X6723928Y-11049414D01*
X6695357Y-11063700D01*
X6681071Y-11077986D01*
X6666786Y-11106557D01*
X6666786Y-11177986D01*
X6681071Y-11206557D01*
X6695357Y-11220843D01*
X6723928Y-11235129D01*
X6781071Y-11235129D01*
X6809643Y-11220843D01*
X6823928Y-11206557D01*
X6838214Y-11177986D01*
X7109643Y-11049414D02*
X6966786Y-11049414D01*
X6952500Y-11192271D01*
X6966786Y-11177986D01*
X6995357Y-11163700D01*
X7066786Y-11163700D01*
X7095357Y-11177986D01*
X7109643Y-11192271D01*
X7123928Y-11220843D01*
X7123928Y-11292271D01*
X7109643Y-11320843D01*
X7095357Y-11335129D01*
X7066786Y-11349414D01*
X6995357Y-11349414D01*
X6966786Y-11335129D01*
X6952500Y-11320843D01*
X7238214Y-11049414D02*
X7238214Y-11106557D01*
X7352500Y-11049414D02*
X7352500Y-11106557D01*
X7795357Y-11463700D02*
X7781071Y-11449414D01*
X7752500Y-11406557D01*
X7738214Y-11377986D01*
X7723928Y-11335129D01*
X7709643Y-11263700D01*
X7709643Y-11206557D01*
X7723928Y-11135129D01*
X7738214Y-11092272D01*
X7752500Y-11063700D01*
X7781071Y-11020843D01*
X7795357Y-11006557D01*
X8066786Y-11349414D02*
X7895357Y-11349414D01*
X7981071Y-11349414D02*
X7981071Y-11049414D01*
X7952500Y-11092272D01*
X7923928Y-11120843D01*
X7895357Y-11135129D01*
X8238214Y-11177986D02*
X8209643Y-11163700D01*
X8195357Y-11149414D01*
X8181071Y-11120843D01*
X8181071Y-11106557D01*
X8195357Y-11077986D01*
X8209643Y-11063700D01*
X8238214Y-11049414D01*
X8295357Y-11049414D01*
X8323928Y-11063700D01*
X8338214Y-11077986D01*
X8352500Y-11106557D01*
X8352500Y-11120843D01*
X8338214Y-11149414D01*
X8323928Y-11163700D01*
X8295357Y-11177986D01*
X8238214Y-11177986D01*
X8209643Y-11192271D01*
X8195357Y-11206557D01*
X8181071Y-11235129D01*
X8181071Y-11292271D01*
X8195357Y-11320843D01*
X8209643Y-11335129D01*
X8238214Y-11349414D01*
X8295357Y-11349414D01*
X8323928Y-11335129D01*
X8338214Y-11320843D01*
X8352500Y-11292271D01*
X8352500Y-11235129D01*
X8338214Y-11206557D01*
X8323928Y-11192271D01*
X8295357Y-11177986D01*
X8709643Y-11349414D02*
X8709643Y-11049414D01*
X8838214Y-11349414D02*
X8838214Y-11192271D01*
X8823928Y-11163700D01*
X8795357Y-11149414D01*
X8752500Y-11149414D01*
X8723928Y-11163700D01*
X8709643Y-11177986D01*
X9023928Y-11349414D02*
X8995357Y-11335129D01*
X8981071Y-11320843D01*
X8966786Y-11292271D01*
X8966786Y-11206557D01*
X8981071Y-11177986D01*
X8995357Y-11163700D01*
X9023928Y-11149414D01*
X9066786Y-11149414D01*
X9095357Y-11163700D01*
X9109643Y-11177986D01*
X9123928Y-11206557D01*
X9123928Y-11292271D01*
X9109643Y-11320843D01*
X9095357Y-11335129D01*
X9066786Y-11349414D01*
X9023928Y-11349414D01*
X9295357Y-11349414D02*
X9266786Y-11335129D01*
X9252500Y-11306557D01*
X9252500Y-11049414D01*
X9523928Y-11335129D02*
X9495357Y-11349414D01*
X9438214Y-11349414D01*
X9409643Y-11335129D01*
X9395357Y-11306557D01*
X9395357Y-11192271D01*
X9409643Y-11163700D01*
X9438214Y-11149414D01*
X9495357Y-11149414D01*
X9523928Y-11163700D01*
X9538214Y-11192271D01*
X9538214Y-11220843D01*
X9395357Y-11249414D01*
X9652500Y-11335129D02*
X9681071Y-11349414D01*
X9738214Y-11349414D01*
X9766786Y-11335129D01*
X9781071Y-11306557D01*
X9781071Y-11292271D01*
X9766786Y-11263700D01*
X9738214Y-11249414D01*
X9695357Y-11249414D01*
X9666786Y-11235129D01*
X9652500Y-11206557D01*
X9652500Y-11192271D01*
X9666786Y-11163700D01*
X9695357Y-11149414D01*
X9738214Y-11149414D01*
X9766786Y-11163700D01*
X9881071Y-11463700D02*
X9895357Y-11449414D01*
X9923928Y-11406557D01*
X9938214Y-11377986D01*
X9952500Y-11335129D01*
X9966786Y-11263700D01*
X9966786Y-11206557D01*
X9952500Y-11135129D01*
X9938214Y-11092272D01*
X9923928Y-11063700D01*
X9895357Y-11020843D01*
X9881071Y-11006557D01*
X2497500Y-11569700D02*
X2497500Y-11649700D01*
X2457500Y-11609700D02*
X2537500Y-11609700D01*
X2881071Y-11445414D02*
X2909643Y-11445414D01*
X2938214Y-11459700D01*
X2952500Y-11473986D01*
X2966786Y-11502557D01*
X2981071Y-11559700D01*
X2981071Y-11631129D01*
X2966786Y-11688271D01*
X2952500Y-11716843D01*
X2938214Y-11731129D01*
X2909643Y-11745414D01*
X2881071Y-11745414D01*
X2852500Y-11731129D01*
X2838214Y-11716843D01*
X2823928Y-11688271D01*
X2809643Y-11631129D01*
X2809643Y-11559700D01*
X2823928Y-11502557D01*
X2838214Y-11473986D01*
X2852500Y-11459700D01*
X2881071Y-11445414D01*
X3109643Y-11716843D02*
X3123928Y-11731129D01*
X3109643Y-11745414D01*
X3095357Y-11731129D01*
X3109643Y-11716843D01*
X3109643Y-11745414D01*
X3295357Y-11573986D02*
X3266786Y-11559700D01*
X3252500Y-11545414D01*
X3238214Y-11516843D01*
X3238214Y-11502557D01*
X3252500Y-11473986D01*
X3266786Y-11459700D01*
X3295357Y-11445414D01*
X3352500Y-11445414D01*
X3381071Y-11459700D01*
X3395357Y-11473986D01*
X3409643Y-11502557D01*
X3409643Y-11516843D01*
X3395357Y-11545414D01*
X3381071Y-11559700D01*
X3352500Y-11573986D01*
X3295357Y-11573986D01*
X3266786Y-11588271D01*
X3252500Y-11602557D01*
X3238214Y-11631129D01*
X3238214Y-11688271D01*
X3252500Y-11716843D01*
X3266786Y-11731129D01*
X3295357Y-11745414D01*
X3352500Y-11745414D01*
X3381071Y-11731129D01*
X3395357Y-11716843D01*
X3409643Y-11688271D01*
X3409643Y-11631129D01*
X3395357Y-11602557D01*
X3381071Y-11588271D01*
X3352500Y-11573986D01*
X3595357Y-11445414D02*
X3623928Y-11445414D01*
X3652500Y-11459700D01*
X3666786Y-11473986D01*
X3681071Y-11502557D01*
X3695357Y-11559700D01*
X3695357Y-11631129D01*
X3681071Y-11688271D01*
X3666786Y-11716843D01*
X3652500Y-11731129D01*
X3623928Y-11745414D01*
X3595357Y-11745414D01*
X3566786Y-11731129D01*
X3552500Y-11716843D01*
X3538214Y-11688271D01*
X3523928Y-11631129D01*
X3523928Y-11559700D01*
X3538214Y-11502557D01*
X3552500Y-11473986D01*
X3566786Y-11459700D01*
X3595357Y-11445414D01*
X3881071Y-11445414D02*
X3909643Y-11445414D01*
X3938214Y-11459700D01*
X3952500Y-11473986D01*
X3966786Y-11502557D01*
X3981071Y-11559700D01*
X3981071Y-11631129D01*
X3966786Y-11688271D01*
X3952500Y-11716843D01*
X3938214Y-11731129D01*
X3909643Y-11745414D01*
X3881071Y-11745414D01*
X3852500Y-11731129D01*
X3838214Y-11716843D01*
X3823928Y-11688271D01*
X3809643Y-11631129D01*
X3809643Y-11559700D01*
X3823928Y-11502557D01*
X3838214Y-11473986D01*
X3852500Y-11459700D01*
X3881071Y-11445414D01*
X4109643Y-11745414D02*
X4109643Y-11545414D01*
X4109643Y-11573986D02*
X4123928Y-11559700D01*
X4152500Y-11545414D01*
X4195357Y-11545414D01*
X4223928Y-11559700D01*
X4238214Y-11588271D01*
X4238214Y-11745414D01*
X4238214Y-11588271D02*
X4252500Y-11559700D01*
X4281071Y-11545414D01*
X4323928Y-11545414D01*
X4352500Y-11559700D01*
X4366786Y-11588271D01*
X4366786Y-11745414D01*
X4509643Y-11745414D02*
X4509643Y-11545414D01*
X4509643Y-11573986D02*
X4523928Y-11559700D01*
X4552500Y-11545414D01*
X4595357Y-11545414D01*
X4623928Y-11559700D01*
X4638214Y-11588271D01*
X4638214Y-11745414D01*
X4638214Y-11588271D02*
X4652500Y-11559700D01*
X4681071Y-11545414D01*
X4723928Y-11545414D01*
X4752500Y-11559700D01*
X4766786Y-11588271D01*
X4766786Y-11745414D01*
X5352500Y-11431129D02*
X5095357Y-11816843D01*
X5738214Y-11445414D02*
X5766786Y-11445414D01*
X5795357Y-11459700D01*
X5809643Y-11473986D01*
X5823928Y-11502557D01*
X5838214Y-11559700D01*
X5838214Y-11631129D01*
X5823928Y-11688271D01*
X5809643Y-11716843D01*
X5795357Y-11731129D01*
X5766786Y-11745414D01*
X5738214Y-11745414D01*
X5709643Y-11731129D01*
X5695357Y-11716843D01*
X5681071Y-11688271D01*
X5666786Y-11631129D01*
X5666786Y-11559700D01*
X5681071Y-11502557D01*
X5695357Y-11473986D01*
X5709643Y-11459700D01*
X5738214Y-11445414D01*
X5966786Y-11716843D02*
X5981071Y-11731129D01*
X5966786Y-11745414D01*
X5952500Y-11731129D01*
X5966786Y-11716843D01*
X5966786Y-11745414D01*
X6166786Y-11445414D02*
X6195357Y-11445414D01*
X6223928Y-11459700D01*
X6238214Y-11473986D01*
X6252500Y-11502557D01*
X6266786Y-11559700D01*
X6266786Y-11631129D01*
X6252500Y-11688271D01*
X6238214Y-11716843D01*
X6223928Y-11731129D01*
X6195357Y-11745414D01*
X6166786Y-11745414D01*
X6138214Y-11731129D01*
X6123928Y-11716843D01*
X6109643Y-11688271D01*
X6095357Y-11631129D01*
X6095357Y-11559700D01*
X6109643Y-11502557D01*
X6123928Y-11473986D01*
X6138214Y-11459700D01*
X6166786Y-11445414D01*
X6366786Y-11445414D02*
X6552500Y-11445414D01*
X6452500Y-11559700D01*
X6495357Y-11559700D01*
X6523928Y-11573986D01*
X6538214Y-11588271D01*
X6552500Y-11616843D01*
X6552500Y-11688271D01*
X6538214Y-11716843D01*
X6523928Y-11731129D01*
X6495357Y-11745414D01*
X6409643Y-11745414D01*
X6381071Y-11731129D01*
X6366786Y-11716843D01*
X6838214Y-11745414D02*
X6666786Y-11745414D01*
X6752500Y-11745414D02*
X6752500Y-11445414D01*
X6723928Y-11488271D01*
X6695357Y-11516843D01*
X6666786Y-11531129D01*
X7109643Y-11445414D02*
X6966786Y-11445414D01*
X6952500Y-11588271D01*
X6966786Y-11573986D01*
X6995357Y-11559700D01*
X7066786Y-11559700D01*
X7095357Y-11573986D01*
X7109643Y-11588271D01*
X7123928Y-11616843D01*
X7123928Y-11688271D01*
X7109643Y-11716843D01*
X7095357Y-11731129D01*
X7066786Y-11745414D01*
X6995357Y-11745414D01*
X6966786Y-11731129D01*
X6952500Y-11716843D01*
X7238214Y-11445414D02*
X7238214Y-11502557D01*
X7352500Y-11445414D02*
X7352500Y-11502557D01*
X7795357Y-11859700D02*
X7781071Y-11845414D01*
X7752500Y-11802557D01*
X7738214Y-11773986D01*
X7723928Y-11731129D01*
X7709643Y-11659700D01*
X7709643Y-11602557D01*
X7723928Y-11531129D01*
X7738214Y-11488271D01*
X7752500Y-11459700D01*
X7781071Y-11416843D01*
X7795357Y-11402557D01*
X8066786Y-11745414D02*
X7895357Y-11745414D01*
X7981071Y-11745414D02*
X7981071Y-11445414D01*
X7952500Y-11488271D01*
X7923928Y-11516843D01*
X7895357Y-11531129D01*
X8166786Y-11445414D02*
X8366786Y-11445414D01*
X8238214Y-11745414D01*
X8466786Y-11473986D02*
X8481071Y-11459700D01*
X8509643Y-11445414D01*
X8581071Y-11445414D01*
X8609643Y-11459700D01*
X8623928Y-11473986D01*
X8638214Y-11502557D01*
X8638214Y-11531129D01*
X8623928Y-11573986D01*
X8452500Y-11745414D01*
X8638214Y-11745414D01*
X8995357Y-11745414D02*
X8995357Y-11445414D01*
X9123928Y-11745414D02*
X9123928Y-11588271D01*
X9109643Y-11559700D01*
X9081071Y-11545414D01*
X9038214Y-11545414D01*
X9009643Y-11559700D01*
X8995357Y-11573986D01*
X9309643Y-11745414D02*
X9281071Y-11731129D01*
X9266786Y-11716843D01*
X9252500Y-11688271D01*
X9252500Y-11602557D01*
X9266786Y-11573986D01*
X9281071Y-11559700D01*
X9309643Y-11545414D01*
X9352500Y-11545414D01*
X9381071Y-11559700D01*
X9395357Y-11573986D01*
X9409643Y-11602557D01*
X9409643Y-11688271D01*
X9395357Y-11716843D01*
X9381071Y-11731129D01*
X9352500Y-11745414D01*
X9309643Y-11745414D01*
X9581071Y-11745414D02*
X9552500Y-11731129D01*
X9538214Y-11702557D01*
X9538214Y-11445414D01*
X9809643Y-11731129D02*
X9781071Y-11745414D01*
X9723928Y-11745414D01*
X9695357Y-11731129D01*
X9681071Y-11702557D01*
X9681071Y-11588271D01*
X9695357Y-11559700D01*
X9723928Y-11545414D01*
X9781071Y-11545414D01*
X9809643Y-11559700D01*
X9823928Y-11588271D01*
X9823928Y-11616843D01*
X9681071Y-11645414D01*
X9938214Y-11731129D02*
X9966786Y-11745414D01*
X10023928Y-11745414D01*
X10052500Y-11731129D01*
X10066786Y-11702557D01*
X10066786Y-11688271D01*
X10052500Y-11659700D01*
X10023928Y-11645414D01*
X9981071Y-11645414D01*
X9952500Y-11631129D01*
X9938214Y-11602557D01*
X9938214Y-11588271D01*
X9952500Y-11559700D01*
X9981071Y-11545414D01*
X10023928Y-11545414D01*
X10052500Y-11559700D01*
X10166786Y-11859700D02*
X10181071Y-11845414D01*
X10209643Y-11802557D01*
X10223928Y-11773986D01*
X10238214Y-11731129D01*
X10252500Y-11659700D01*
X10252500Y-11602557D01*
X10238214Y-11531129D01*
X10223928Y-11488271D01*
X10209643Y-11459700D01*
X10181071Y-11416843D01*
X10166786Y-11402557D01*
X2524320Y-12037520D02*
X2524320Y-11973880D01*
X2460680Y-11973880D01*
X2460680Y-12037520D01*
X2524320Y-12037520D01*
X2881071Y-11841414D02*
X2909643Y-11841414D01*
X2938214Y-11855700D01*
X2952500Y-11869986D01*
X2966786Y-11898557D01*
X2981071Y-11955700D01*
X2981071Y-12027129D01*
X2966786Y-12084271D01*
X2952500Y-12112843D01*
X2938214Y-12127129D01*
X2909643Y-12141414D01*
X2881071Y-12141414D01*
X2852500Y-12127129D01*
X2838214Y-12112843D01*
X2823928Y-12084271D01*
X2809643Y-12027129D01*
X2809643Y-11955700D01*
X2823928Y-11898557D01*
X2838214Y-11869986D01*
X2852500Y-11855700D01*
X2881071Y-11841414D01*
X3109643Y-12112843D02*
X3123928Y-12127129D01*
X3109643Y-12141414D01*
X3095357Y-12127129D01*
X3109643Y-12112843D01*
X3109643Y-12141414D01*
X3266786Y-12141414D02*
X3323928Y-12141414D01*
X3352500Y-12127129D01*
X3366786Y-12112843D01*
X3395357Y-12069986D01*
X3409643Y-12012843D01*
X3409643Y-11898557D01*
X3395357Y-11869986D01*
X3381071Y-11855700D01*
X3352500Y-11841414D01*
X3295357Y-11841414D01*
X3266786Y-11855700D01*
X3252500Y-11869986D01*
X3238214Y-11898557D01*
X3238214Y-11969986D01*
X3252500Y-11998557D01*
X3266786Y-12012843D01*
X3295357Y-12027129D01*
X3352500Y-12027129D01*
X3381071Y-12012843D01*
X3395357Y-11998557D01*
X3409643Y-11969986D01*
X3595357Y-11841414D02*
X3623928Y-11841414D01*
X3652500Y-11855700D01*
X3666786Y-11869986D01*
X3681071Y-11898557D01*
X3695357Y-11955700D01*
X3695357Y-12027129D01*
X3681071Y-12084271D01*
X3666786Y-12112843D01*
X3652500Y-12127129D01*
X3623928Y-12141414D01*
X3595357Y-12141414D01*
X3566786Y-12127129D01*
X3552500Y-12112843D01*
X3538214Y-12084271D01*
X3523928Y-12027129D01*
X3523928Y-11955700D01*
X3538214Y-11898557D01*
X3552500Y-11869986D01*
X3566786Y-11855700D01*
X3595357Y-11841414D01*
X3881071Y-11841414D02*
X3909643Y-11841414D01*
X3938214Y-11855700D01*
X3952500Y-11869986D01*
X3966786Y-11898557D01*
X3981071Y-11955700D01*
X3981071Y-12027129D01*
X3966786Y-12084271D01*
X3952500Y-12112843D01*
X3938214Y-12127129D01*
X3909643Y-12141414D01*
X3881071Y-12141414D01*
X3852500Y-12127129D01*
X3838214Y-12112843D01*
X3823928Y-12084271D01*
X3809643Y-12027129D01*
X3809643Y-11955700D01*
X3823928Y-11898557D01*
X3838214Y-11869986D01*
X3852500Y-11855700D01*
X3881071Y-11841414D01*
X4109643Y-12141414D02*
X4109643Y-11941414D01*
X4109643Y-11969986D02*
X4123928Y-11955700D01*
X4152500Y-11941414D01*
X4195357Y-11941414D01*
X4223928Y-11955700D01*
X4238214Y-11984271D01*
X4238214Y-12141414D01*
X4238214Y-11984271D02*
X4252500Y-11955700D01*
X4281071Y-11941414D01*
X4323928Y-11941414D01*
X4352500Y-11955700D01*
X4366786Y-11984271D01*
X4366786Y-12141414D01*
X4509643Y-12141414D02*
X4509643Y-11941414D01*
X4509643Y-11969986D02*
X4523928Y-11955700D01*
X4552500Y-11941414D01*
X4595357Y-11941414D01*
X4623928Y-11955700D01*
X4638214Y-11984271D01*
X4638214Y-12141414D01*
X4638214Y-11984271D02*
X4652500Y-11955700D01*
X4681071Y-11941414D01*
X4723928Y-11941414D01*
X4752500Y-11955700D01*
X4766786Y-11984271D01*
X4766786Y-12141414D01*
X5352500Y-11827129D02*
X5095357Y-12212843D01*
X5738214Y-11841414D02*
X5766786Y-11841414D01*
X5795357Y-11855700D01*
X5809643Y-11869986D01*
X5823928Y-11898557D01*
X5838214Y-11955700D01*
X5838214Y-12027129D01*
X5823928Y-12084271D01*
X5809643Y-12112843D01*
X5795357Y-12127129D01*
X5766786Y-12141414D01*
X5738214Y-12141414D01*
X5709643Y-12127129D01*
X5695357Y-12112843D01*
X5681071Y-12084271D01*
X5666786Y-12027129D01*
X5666786Y-11955700D01*
X5681071Y-11898557D01*
X5695357Y-11869986D01*
X5709643Y-11855700D01*
X5738214Y-11841414D01*
X5966786Y-12112843D02*
X5981071Y-12127129D01*
X5966786Y-12141414D01*
X5952500Y-12127129D01*
X5966786Y-12112843D01*
X5966786Y-12141414D01*
X6166786Y-11841414D02*
X6195357Y-11841414D01*
X6223928Y-11855700D01*
X6238214Y-11869986D01*
X6252500Y-11898557D01*
X6266786Y-11955700D01*
X6266786Y-12027129D01*
X6252500Y-12084271D01*
X6238214Y-12112843D01*
X6223928Y-12127129D01*
X6195357Y-12141414D01*
X6166786Y-12141414D01*
X6138214Y-12127129D01*
X6123928Y-12112843D01*
X6109643Y-12084271D01*
X6095357Y-12027129D01*
X6095357Y-11955700D01*
X6109643Y-11898557D01*
X6123928Y-11869986D01*
X6138214Y-11855700D01*
X6166786Y-11841414D01*
X6366786Y-11841414D02*
X6552500Y-11841414D01*
X6452500Y-11955700D01*
X6495357Y-11955700D01*
X6523928Y-11969986D01*
X6538214Y-11984271D01*
X6552500Y-12012843D01*
X6552500Y-12084271D01*
X6538214Y-12112843D01*
X6523928Y-12127129D01*
X6495357Y-12141414D01*
X6409643Y-12141414D01*
X6381071Y-12127129D01*
X6366786Y-12112843D01*
X6823928Y-11841414D02*
X6681071Y-11841414D01*
X6666786Y-11984271D01*
X6681071Y-11969986D01*
X6709643Y-11955700D01*
X6781071Y-11955700D01*
X6809643Y-11969986D01*
X6823928Y-11984271D01*
X6838214Y-12012843D01*
X6838214Y-12084271D01*
X6823928Y-12112843D01*
X6809643Y-12127129D01*
X6781071Y-12141414D01*
X6709643Y-12141414D01*
X6681071Y-12127129D01*
X6666786Y-12112843D01*
X7095357Y-11941414D02*
X7095357Y-12141414D01*
X7023928Y-11827129D02*
X6952500Y-12041414D01*
X7138214Y-12041414D01*
X7238214Y-11841414D02*
X7238214Y-11898557D01*
X7352500Y-11841414D02*
X7352500Y-11898557D01*
X7795357Y-12255700D02*
X7781071Y-12241414D01*
X7752500Y-12198557D01*
X7738214Y-12169986D01*
X7723928Y-12127129D01*
X7709643Y-12055700D01*
X7709643Y-11998557D01*
X7723928Y-11927129D01*
X7738214Y-11884271D01*
X7752500Y-11855700D01*
X7781071Y-11812843D01*
X7795357Y-11798557D01*
X7952500Y-11969986D02*
X7923928Y-11955700D01*
X7909643Y-11941414D01*
X7895357Y-11912843D01*
X7895357Y-11898557D01*
X7909643Y-11869986D01*
X7923928Y-11855700D01*
X7952500Y-11841414D01*
X8009643Y-11841414D01*
X8038214Y-11855700D01*
X8052500Y-11869986D01*
X8066786Y-11898557D01*
X8066786Y-11912843D01*
X8052500Y-11941414D01*
X8038214Y-11955700D01*
X8009643Y-11969986D01*
X7952500Y-11969986D01*
X7923928Y-11984271D01*
X7909643Y-11998557D01*
X7895357Y-12027129D01*
X7895357Y-12084271D01*
X7909643Y-12112843D01*
X7923928Y-12127129D01*
X7952500Y-12141414D01*
X8009643Y-12141414D01*
X8038214Y-12127129D01*
X8052500Y-12112843D01*
X8066786Y-12084271D01*
X8066786Y-12027129D01*
X8052500Y-11998557D01*
X8038214Y-11984271D01*
X8009643Y-11969986D01*
X8423928Y-12141414D02*
X8423928Y-11841414D01*
X8552500Y-12141414D02*
X8552500Y-11984271D01*
X8538214Y-11955700D01*
X8509643Y-11941414D01*
X8466786Y-11941414D01*
X8438214Y-11955700D01*
X8423928Y-11969986D01*
X8738214Y-12141414D02*
X8709643Y-12127129D01*
X8695357Y-12112843D01*
X8681071Y-12084271D01*
X8681071Y-11998557D01*
X8695357Y-11969986D01*
X8709643Y-11955700D01*
X8738214Y-11941414D01*
X8781071Y-11941414D01*
X8809643Y-11955700D01*
X8823928Y-11969986D01*
X8838214Y-11998557D01*
X8838214Y-12084271D01*
X8823928Y-12112843D01*
X8809643Y-12127129D01*
X8781071Y-12141414D01*
X8738214Y-12141414D01*
X9009643Y-12141414D02*
X8981071Y-12127129D01*
X8966786Y-12098557D01*
X8966786Y-11841414D01*
X9238214Y-12127129D02*
X9209643Y-12141414D01*
X9152500Y-12141414D01*
X9123928Y-12127129D01*
X9109643Y-12098557D01*
X9109643Y-11984271D01*
X9123928Y-11955700D01*
X9152500Y-11941414D01*
X9209643Y-11941414D01*
X9238214Y-11955700D01*
X9252500Y-11984271D01*
X9252500Y-12012843D01*
X9109643Y-12041414D01*
X9366786Y-12127129D02*
X9395357Y-12141414D01*
X9452500Y-12141414D01*
X9481071Y-12127129D01*
X9495357Y-12098557D01*
X9495357Y-12084271D01*
X9481071Y-12055700D01*
X9452500Y-12041414D01*
X9409643Y-12041414D01*
X9381071Y-12027129D01*
X9366786Y-11998557D01*
X9366786Y-11984271D01*
X9381071Y-11955700D01*
X9409643Y-11941414D01*
X9452500Y-11941414D01*
X9481071Y-11955700D01*
X9595357Y-12255700D02*
X9609643Y-12241414D01*
X9638214Y-12198557D01*
X9652500Y-12169986D01*
X9666786Y-12127129D01*
X9681071Y-12055700D01*
X9681071Y-11998557D01*
X9666786Y-11927129D01*
X9652500Y-11884271D01*
X9638214Y-11855700D01*
X9609643Y-11812843D01*
X9595357Y-11798557D01*
X2490000Y-12449200D02*
X2537500Y-12401700D01*
X2490000Y-12354200D01*
X2442500Y-12401700D01*
X2490000Y-12449200D01*
X2881071Y-12237414D02*
X2909643Y-12237414D01*
X2938214Y-12251700D01*
X2952500Y-12265986D01*
X2966786Y-12294557D01*
X2981071Y-12351700D01*
X2981071Y-12423129D01*
X2966786Y-12480271D01*
X2952500Y-12508843D01*
X2938214Y-12523129D01*
X2909643Y-12537414D01*
X2881071Y-12537414D01*
X2852500Y-12523129D01*
X2838214Y-12508843D01*
X2823928Y-12480271D01*
X2809643Y-12423129D01*
X2809643Y-12351700D01*
X2823928Y-12294557D01*
X2838214Y-12265986D01*
X2852500Y-12251700D01*
X2881071Y-12237414D01*
X3109643Y-12508843D02*
X3123928Y-12523129D01*
X3109643Y-12537414D01*
X3095357Y-12523129D01*
X3109643Y-12508843D01*
X3109643Y-12537414D01*
X3266786Y-12537414D02*
X3323928Y-12537414D01*
X3352500Y-12523129D01*
X3366786Y-12508843D01*
X3395357Y-12465986D01*
X3409643Y-12408843D01*
X3409643Y-12294557D01*
X3395357Y-12265986D01*
X3381071Y-12251700D01*
X3352500Y-12237414D01*
X3295357Y-12237414D01*
X3266786Y-12251700D01*
X3252500Y-12265986D01*
X3238214Y-12294557D01*
X3238214Y-12365986D01*
X3252500Y-12394557D01*
X3266786Y-12408843D01*
X3295357Y-12423129D01*
X3352500Y-12423129D01*
X3381071Y-12408843D01*
X3395357Y-12394557D01*
X3409643Y-12365986D01*
X3681071Y-12237414D02*
X3538214Y-12237414D01*
X3523928Y-12380271D01*
X3538214Y-12365986D01*
X3566786Y-12351700D01*
X3638214Y-12351700D01*
X3666786Y-12365986D01*
X3681071Y-12380271D01*
X3695357Y-12408843D01*
X3695357Y-12480271D01*
X3681071Y-12508843D01*
X3666786Y-12523129D01*
X3638214Y-12537414D01*
X3566786Y-12537414D01*
X3538214Y-12523129D01*
X3523928Y-12508843D01*
X3881071Y-12237414D02*
X3909643Y-12237414D01*
X3938214Y-12251700D01*
X3952500Y-12265986D01*
X3966786Y-12294557D01*
X3981071Y-12351700D01*
X3981071Y-12423129D01*
X3966786Y-12480271D01*
X3952500Y-12508843D01*
X3938214Y-12523129D01*
X3909643Y-12537414D01*
X3881071Y-12537414D01*
X3852500Y-12523129D01*
X3838214Y-12508843D01*
X3823928Y-12480271D01*
X3809643Y-12423129D01*
X3809643Y-12351700D01*
X3823928Y-12294557D01*
X3838214Y-12265986D01*
X3852500Y-12251700D01*
X3881071Y-12237414D01*
X4109643Y-12537414D02*
X4109643Y-12337414D01*
X4109643Y-12365986D02*
X4123928Y-12351700D01*
X4152500Y-12337414D01*
X4195357Y-12337414D01*
X4223928Y-12351700D01*
X4238214Y-12380271D01*
X4238214Y-12537414D01*
X4238214Y-12380271D02*
X4252500Y-12351700D01*
X4281071Y-12337414D01*
X4323928Y-12337414D01*
X4352500Y-12351700D01*
X4366786Y-12380271D01*
X4366786Y-12537414D01*
X4509643Y-12537414D02*
X4509643Y-12337414D01*
X4509643Y-12365986D02*
X4523928Y-12351700D01*
X4552500Y-12337414D01*
X4595357Y-12337414D01*
X4623928Y-12351700D01*
X4638214Y-12380271D01*
X4638214Y-12537414D01*
X4638214Y-12380271D02*
X4652500Y-12351700D01*
X4681071Y-12337414D01*
X4723928Y-12337414D01*
X4752500Y-12351700D01*
X4766786Y-12380271D01*
X4766786Y-12537414D01*
X5352500Y-12223129D02*
X5095357Y-12608843D01*
X5738214Y-12237414D02*
X5766786Y-12237414D01*
X5795357Y-12251700D01*
X5809643Y-12265986D01*
X5823928Y-12294557D01*
X5838214Y-12351700D01*
X5838214Y-12423129D01*
X5823928Y-12480271D01*
X5809643Y-12508843D01*
X5795357Y-12523129D01*
X5766786Y-12537414D01*
X5738214Y-12537414D01*
X5709643Y-12523129D01*
X5695357Y-12508843D01*
X5681071Y-12480271D01*
X5666786Y-12423129D01*
X5666786Y-12351700D01*
X5681071Y-12294557D01*
X5695357Y-12265986D01*
X5709643Y-12251700D01*
X5738214Y-12237414D01*
X5966786Y-12508843D02*
X5981071Y-12523129D01*
X5966786Y-12537414D01*
X5952500Y-12523129D01*
X5966786Y-12508843D01*
X5966786Y-12537414D01*
X6166786Y-12237414D02*
X6195357Y-12237414D01*
X6223928Y-12251700D01*
X6238214Y-12265986D01*
X6252500Y-12294557D01*
X6266786Y-12351700D01*
X6266786Y-12423129D01*
X6252500Y-12480271D01*
X6238214Y-12508843D01*
X6223928Y-12523129D01*
X6195357Y-12537414D01*
X6166786Y-12537414D01*
X6138214Y-12523129D01*
X6123928Y-12508843D01*
X6109643Y-12480271D01*
X6095357Y-12423129D01*
X6095357Y-12351700D01*
X6109643Y-12294557D01*
X6123928Y-12265986D01*
X6138214Y-12251700D01*
X6166786Y-12237414D01*
X6366786Y-12237414D02*
X6552500Y-12237414D01*
X6452500Y-12351700D01*
X6495357Y-12351700D01*
X6523928Y-12365986D01*
X6538214Y-12380271D01*
X6552500Y-12408843D01*
X6552500Y-12480271D01*
X6538214Y-12508843D01*
X6523928Y-12523129D01*
X6495357Y-12537414D01*
X6409643Y-12537414D01*
X6381071Y-12523129D01*
X6366786Y-12508843D01*
X6652500Y-12237414D02*
X6852500Y-12237414D01*
X6723928Y-12537414D01*
X7095357Y-12337414D02*
X7095357Y-12537414D01*
X7023928Y-12223129D02*
X6952500Y-12437414D01*
X7138214Y-12437414D01*
X7238214Y-12237414D02*
X7238214Y-12294557D01*
X7352500Y-12237414D02*
X7352500Y-12294557D01*
X7795357Y-12651700D02*
X7781071Y-12637414D01*
X7752500Y-12594557D01*
X7738214Y-12565986D01*
X7723928Y-12523129D01*
X7709643Y-12451700D01*
X7709643Y-12394557D01*
X7723928Y-12323129D01*
X7738214Y-12280271D01*
X7752500Y-12251700D01*
X7781071Y-12208843D01*
X7795357Y-12194557D01*
X8052500Y-12237414D02*
X7909643Y-12237414D01*
X7895357Y-12380271D01*
X7909643Y-12365986D01*
X7938214Y-12351700D01*
X8009643Y-12351700D01*
X8038214Y-12365986D01*
X8052500Y-12380271D01*
X8066786Y-12408843D01*
X8066786Y-12480271D01*
X8052500Y-12508843D01*
X8038214Y-12523129D01*
X8009643Y-12537414D01*
X7938214Y-12537414D01*
X7909643Y-12523129D01*
X7895357Y-12508843D01*
X8323928Y-12337414D02*
X8323928Y-12537414D01*
X8252500Y-12223129D02*
X8181071Y-12437414D01*
X8366786Y-12437414D01*
X8709643Y-12537414D02*
X8709643Y-12237414D01*
X8838214Y-12537414D02*
X8838214Y-12380271D01*
X8823928Y-12351700D01*
X8795357Y-12337414D01*
X8752500Y-12337414D01*
X8723928Y-12351700D01*
X8709643Y-12365986D01*
X9023928Y-12537414D02*
X8995357Y-12523129D01*
X8981071Y-12508843D01*
X8966786Y-12480271D01*
X8966786Y-12394557D01*
X8981071Y-12365986D01*
X8995357Y-12351700D01*
X9023928Y-12337414D01*
X9066786Y-12337414D01*
X9095357Y-12351700D01*
X9109643Y-12365986D01*
X9123928Y-12394557D01*
X9123928Y-12480271D01*
X9109643Y-12508843D01*
X9095357Y-12523129D01*
X9066786Y-12537414D01*
X9023928Y-12537414D01*
X9295357Y-12537414D02*
X9266786Y-12523129D01*
X9252500Y-12494557D01*
X9252500Y-12237414D01*
X9523928Y-12523129D02*
X9495357Y-12537414D01*
X9438214Y-12537414D01*
X9409643Y-12523129D01*
X9395357Y-12494557D01*
X9395357Y-12380271D01*
X9409643Y-12351700D01*
X9438214Y-12337414D01*
X9495357Y-12337414D01*
X9523928Y-12351700D01*
X9538214Y-12380271D01*
X9538214Y-12408843D01*
X9395357Y-12437414D01*
X9652500Y-12523129D02*
X9681071Y-12537414D01*
X9738214Y-12537414D01*
X9766786Y-12523129D01*
X9781071Y-12494557D01*
X9781071Y-12480271D01*
X9766786Y-12451700D01*
X9738214Y-12437414D01*
X9695357Y-12437414D01*
X9666786Y-12423129D01*
X9652500Y-12394557D01*
X9652500Y-12380271D01*
X9666786Y-12351700D01*
X9695357Y-12337414D01*
X9738214Y-12337414D01*
X9766786Y-12351700D01*
X9881071Y-12651700D02*
X9895357Y-12637414D01*
X9923928Y-12594557D01*
X9938214Y-12565986D01*
X9952500Y-12523129D01*
X9966786Y-12451700D01*
X9966786Y-12394557D01*
X9952500Y-12323129D01*
X9938214Y-12280271D01*
X9923928Y-12251700D01*
X9895357Y-12208843D01*
X9881071Y-12194557D01*
X2437500Y-12747700D02*
X2537500Y-12847700D01*
X2537500Y-12747700D02*
X2437500Y-12847700D01*
X2537500Y-12797700D02*
G75*
G03*
X2537500Y-12797700I-50000J0D01*
G01*
X2981071Y-12933414D02*
X2809643Y-12933414D01*
X2895357Y-12933414D02*
X2895357Y-12633414D01*
X2866786Y-12676271D01*
X2838214Y-12704843D01*
X2809643Y-12719129D01*
X3109643Y-12904843D02*
X3123928Y-12919129D01*
X3109643Y-12933414D01*
X3095357Y-12919129D01*
X3109643Y-12904843D01*
X3109643Y-12933414D01*
X3309643Y-12633414D02*
X3338214Y-12633414D01*
X3366786Y-12647700D01*
X3381071Y-12661986D01*
X3395357Y-12690557D01*
X3409643Y-12747700D01*
X3409643Y-12819129D01*
X3395357Y-12876271D01*
X3381071Y-12904843D01*
X3366786Y-12919129D01*
X3338214Y-12933414D01*
X3309643Y-12933414D01*
X3281071Y-12919129D01*
X3266786Y-12904843D01*
X3252500Y-12876271D01*
X3238214Y-12819129D01*
X3238214Y-12747700D01*
X3252500Y-12690557D01*
X3266786Y-12661986D01*
X3281071Y-12647700D01*
X3309643Y-12633414D01*
X3595357Y-12633414D02*
X3623928Y-12633414D01*
X3652500Y-12647700D01*
X3666786Y-12661986D01*
X3681071Y-12690557D01*
X3695357Y-12747700D01*
X3695357Y-12819129D01*
X3681071Y-12876271D01*
X3666786Y-12904843D01*
X3652500Y-12919129D01*
X3623928Y-12933414D01*
X3595357Y-12933414D01*
X3566786Y-12919129D01*
X3552500Y-12904843D01*
X3538214Y-12876271D01*
X3523928Y-12819129D01*
X3523928Y-12747700D01*
X3538214Y-12690557D01*
X3552500Y-12661986D01*
X3566786Y-12647700D01*
X3595357Y-12633414D01*
X3881071Y-12633414D02*
X3909643Y-12633414D01*
X3938214Y-12647700D01*
X3952500Y-12661986D01*
X3966786Y-12690557D01*
X3981071Y-12747700D01*
X3981071Y-12819129D01*
X3966786Y-12876271D01*
X3952500Y-12904843D01*
X3938214Y-12919129D01*
X3909643Y-12933414D01*
X3881071Y-12933414D01*
X3852500Y-12919129D01*
X3838214Y-12904843D01*
X3823928Y-12876271D01*
X3809643Y-12819129D01*
X3809643Y-12747700D01*
X3823928Y-12690557D01*
X3838214Y-12661986D01*
X3852500Y-12647700D01*
X3881071Y-12633414D01*
X4109643Y-12933414D02*
X4109643Y-12733414D01*
X4109643Y-12761986D02*
X4123928Y-12747700D01*
X4152500Y-12733414D01*
X4195357Y-12733414D01*
X4223928Y-12747700D01*
X4238214Y-12776271D01*
X4238214Y-12933414D01*
X4238214Y-12776271D02*
X4252500Y-12747700D01*
X4281071Y-12733414D01*
X4323928Y-12733414D01*
X4352500Y-12747700D01*
X4366786Y-12776271D01*
X4366786Y-12933414D01*
X4509643Y-12933414D02*
X4509643Y-12733414D01*
X4509643Y-12761986D02*
X4523928Y-12747700D01*
X4552500Y-12733414D01*
X4595357Y-12733414D01*
X4623928Y-12747700D01*
X4638214Y-12776271D01*
X4638214Y-12933414D01*
X4638214Y-12776271D02*
X4652500Y-12747700D01*
X4681071Y-12733414D01*
X4723928Y-12733414D01*
X4752500Y-12747700D01*
X4766786Y-12776271D01*
X4766786Y-12933414D01*
X5352500Y-12619129D02*
X5095357Y-13004843D01*
X5738214Y-12633414D02*
X5766786Y-12633414D01*
X5795357Y-12647700D01*
X5809643Y-12661986D01*
X5823928Y-12690557D01*
X5838214Y-12747700D01*
X5838214Y-12819129D01*
X5823928Y-12876271D01*
X5809643Y-12904843D01*
X5795357Y-12919129D01*
X5766786Y-12933414D01*
X5738214Y-12933414D01*
X5709643Y-12919129D01*
X5695357Y-12904843D01*
X5681071Y-12876271D01*
X5666786Y-12819129D01*
X5666786Y-12747700D01*
X5681071Y-12690557D01*
X5695357Y-12661986D01*
X5709643Y-12647700D01*
X5738214Y-12633414D01*
X5966786Y-12904843D02*
X5981071Y-12919129D01*
X5966786Y-12933414D01*
X5952500Y-12919129D01*
X5966786Y-12904843D01*
X5966786Y-12933414D01*
X6166786Y-12633414D02*
X6195357Y-12633414D01*
X6223928Y-12647700D01*
X6238214Y-12661986D01*
X6252500Y-12690557D01*
X6266786Y-12747700D01*
X6266786Y-12819129D01*
X6252500Y-12876271D01*
X6238214Y-12904843D01*
X6223928Y-12919129D01*
X6195357Y-12933414D01*
X6166786Y-12933414D01*
X6138214Y-12919129D01*
X6123928Y-12904843D01*
X6109643Y-12876271D01*
X6095357Y-12819129D01*
X6095357Y-12747700D01*
X6109643Y-12690557D01*
X6123928Y-12661986D01*
X6138214Y-12647700D01*
X6166786Y-12633414D01*
X6366786Y-12633414D02*
X6552500Y-12633414D01*
X6452500Y-12747700D01*
X6495357Y-12747700D01*
X6523928Y-12761986D01*
X6538214Y-12776271D01*
X6552500Y-12804843D01*
X6552500Y-12876271D01*
X6538214Y-12904843D01*
X6523928Y-12919129D01*
X6495357Y-12933414D01*
X6409643Y-12933414D01*
X6381071Y-12919129D01*
X6366786Y-12904843D01*
X6695357Y-12933414D02*
X6752500Y-12933414D01*
X6781071Y-12919129D01*
X6795357Y-12904843D01*
X6823928Y-12861986D01*
X6838214Y-12804843D01*
X6838214Y-12690557D01*
X6823928Y-12661986D01*
X6809643Y-12647700D01*
X6781071Y-12633414D01*
X6723928Y-12633414D01*
X6695357Y-12647700D01*
X6681071Y-12661986D01*
X6666786Y-12690557D01*
X6666786Y-12761986D01*
X6681071Y-12790557D01*
X6695357Y-12804843D01*
X6723928Y-12819129D01*
X6781071Y-12819129D01*
X6809643Y-12804843D01*
X6823928Y-12790557D01*
X6838214Y-12761986D01*
X7095357Y-12733414D02*
X7095357Y-12933414D01*
X7023928Y-12619129D02*
X6952500Y-12833414D01*
X7138214Y-12833414D01*
X7238214Y-12633414D02*
X7238214Y-12690557D01*
X7352500Y-12633414D02*
X7352500Y-12690557D01*
X7795357Y-13047700D02*
X7781071Y-13033414D01*
X7752500Y-12990557D01*
X7738214Y-12961986D01*
X7723928Y-12919129D01*
X7709643Y-12847700D01*
X7709643Y-12790557D01*
X7723928Y-12719129D01*
X7738214Y-12676271D01*
X7752500Y-12647700D01*
X7781071Y-12604843D01*
X7795357Y-12590557D01*
X8066786Y-12933414D02*
X7895357Y-12933414D01*
X7981071Y-12933414D02*
X7981071Y-12633414D01*
X7952500Y-12676271D01*
X7923928Y-12704843D01*
X7895357Y-12719129D01*
X8181071Y-12661986D02*
X8195357Y-12647700D01*
X8223928Y-12633414D01*
X8295357Y-12633414D01*
X8323928Y-12647700D01*
X8338214Y-12661986D01*
X8352500Y-12690557D01*
X8352500Y-12719129D01*
X8338214Y-12761986D01*
X8166786Y-12933414D01*
X8352500Y-12933414D01*
X8709643Y-12933414D02*
X8709643Y-12633414D01*
X8838214Y-12933414D02*
X8838214Y-12776271D01*
X8823928Y-12747700D01*
X8795357Y-12733414D01*
X8752500Y-12733414D01*
X8723928Y-12747700D01*
X8709643Y-12761986D01*
X9023928Y-12933414D02*
X8995357Y-12919129D01*
X8981071Y-12904843D01*
X8966786Y-12876271D01*
X8966786Y-12790557D01*
X8981071Y-12761986D01*
X8995357Y-12747700D01*
X9023928Y-12733414D01*
X9066786Y-12733414D01*
X9095357Y-12747700D01*
X9109643Y-12761986D01*
X9123928Y-12790557D01*
X9123928Y-12876271D01*
X9109643Y-12904843D01*
X9095357Y-12919129D01*
X9066786Y-12933414D01*
X9023928Y-12933414D01*
X9295357Y-12933414D02*
X9266786Y-12919129D01*
X9252500Y-12890557D01*
X9252500Y-12633414D01*
X9523928Y-12919129D02*
X9495357Y-12933414D01*
X9438214Y-12933414D01*
X9409643Y-12919129D01*
X9395357Y-12890557D01*
X9395357Y-12776271D01*
X9409643Y-12747700D01*
X9438214Y-12733414D01*
X9495357Y-12733414D01*
X9523928Y-12747700D01*
X9538214Y-12776271D01*
X9538214Y-12804843D01*
X9395357Y-12833414D01*
X9652500Y-12919129D02*
X9681071Y-12933414D01*
X9738214Y-12933414D01*
X9766786Y-12919129D01*
X9781071Y-12890557D01*
X9781071Y-12876271D01*
X9766786Y-12847700D01*
X9738214Y-12833414D01*
X9695357Y-12833414D01*
X9666786Y-12819129D01*
X9652500Y-12790557D01*
X9652500Y-12776271D01*
X9666786Y-12747700D01*
X9695357Y-12733414D01*
X9738214Y-12733414D01*
X9766786Y-12747700D01*
X9881071Y-13047700D02*
X9895357Y-13033414D01*
X9923928Y-12990557D01*
X9938214Y-12961986D01*
X9952500Y-12919129D01*
X9966786Y-12847700D01*
X9966786Y-12790557D01*
X9952500Y-12719129D01*
X9938214Y-12676271D01*
X9923928Y-12647700D01*
X9895357Y-12604843D01*
X9881071Y-12590557D01*
M02*
